{
    "asset" : {
        "generator" : "Khronos glTF Blender I/O v3.4.50",
        "version" : "2.0"
    },
    "scene" : 0,
    "scenes" : [
        {
            "name" : "Scene",
            "nodes" : [
                0
            ]
        }
    ],
    "nodes" : [
        {
            "mesh" : 0,
            "name" : "19908_Aphid_v1",
            "rotation" : [
                0,
                -1,
                0,
                7.549790126404332e-08
            ],
            "scale" : [
                0.2866012156009674,
                0.2866012156009674,
                0.2866012156009674
            ]
        }
    ],
    "meshes" : [
        {
            "name" : "19908_Aphid_v1",
            "primitives" : [
                {
                    "attributes" : {
                        "POSITION" : 0,
                        "TEXCOORD_0" : 1,
                        "NORMAL" : 2
                    },
                    "indices" : 3
                }
            ]
        }
    ],
    "accessors" : [
        {
            "bufferView" : 0,
            "componentType" : 5126,
            "count" : 21670,
            "max" : [
                5.037399768829346,
                3.539299964904785,
                4.96999979019165
            ],
            "min" : [
                -5.037399768829346,
                -0.004000000189989805,
                -4.946800231933594
            ],
            "type" : "VEC3"
        },
        {
            "bufferView" : 1,
            "componentType" : 5126,
            "count" : 21670,
            "type" : "VEC2"
        },
        {
            "bufferView" : 2,
            "componentType" : 5126,
            "count" : 21670,
            "type" : "VEC3"
        },
        {
            "bufferView" : 3,
            "componentType" : 5123,
            "count" : 122736,
            "type" : "SCALAR"
        }
    ],
    "bufferViews" : [
        {
            "buffer" : 0,
            "byteLength" : 260040,
            "byteOffset" : 0,
            "target" : 34962
        },
        {
            "buffer" : 0,
            "byteLength" : 173360,
            "byteOffset" : 260040,
            "target" : 34962
        },
        {
            "buffer" : 0,
            "byteLength" : 260040,
            "byteOffset" : 433400,
            "target" : 34962
        },
        {
            "buffer" : 0,
            "byteLength" : 245472,
            "byteOffset" : 693440,
            "target" : 34963
        }
    ],
    "buffers" : [
        {
            "byteLength" : 938912,
            "uri" : "bug.bin"
        }
    ]
}
