<?xml version="1.0" encoding="UTF-8" standalone="no"?>
<!-- Created with Inkscape (http://www.inkscape.org/) -->

<svg
   version="1.1"
   id="svg1"
   width="320"
   height="480"
   viewBox="0 0 320 480.00001"
   sodipodi:docname="edidev.svg"
   inkscape:export-filename="edidev.svg"
   inkscape:export-xdpi="96"
   inkscape:export-ydpi="96"
   inkscape:version="1.4.2 (f4327f4, 2025-05-13)"
   xml:space="preserve"
   xmlns:inkscape="http://www.inkscape.org/namespaces/inkscape"
   xmlns:sodipodi="http://sodipodi.sourceforge.net/DTD/sodipodi-0.dtd"
   xmlns="http://www.w3.org/2000/svg"
   xmlns:svg="http://www.w3.org/2000/svg"><defs
     id="defs1" /><sodipodi:namedview
     id="namedview1"
     pagecolor="#ffffff"
     bordercolor="#000000"
     borderopacity="0.25"
     inkscape:showpageshadow="2"
     inkscape:pageopacity="0.0"
     inkscape:pagecheckerboard="0"
     inkscape:deskcolor="#d1d1d1"
     inkscape:zoom="7.1458333"
     inkscape:cx="307.10204"
     inkscape:cy="287.44023"
     inkscape:window-width="2880"
     inkscape:window-height="1676"
     inkscape:window-x="-12"
     inkscape:window-y="-12"
     inkscape:window-maximized="1"
     inkscape:current-layer="g14"
     showguides="false" /><g
     inkscape:groupmode="layer"
     inkscape:label="Image"
     id="g1"
     transform="translate(-16.065502,-22.999172)"><path
       style="fill:#2c59c2;fill-opacity:1;stroke-width:0.273681"
       d="m 260.72515,456.50813 c -15.58238,-1.73306 -32.55541,-9.48604 -54.55993,-24.92203 -6.32759,-4.43876 -9.20764,-6.64877 -11.67099,-8.95579 -1.05368,-0.98682 -2.9626,-2.52455 -4.24207,-3.41725 -1.27946,-0.89269 -5.12147,-3.71202 -8.5378,-6.26519 l -6.21151,-4.64216 -2.13578,0.0491 c -8.98184,0.20643 -17.76636,-8.94214 -18.64008,-19.41259 l -0.19026,-2.28004 -3.36176,-1.28523 c -10.53152,-4.02635 -17.94134,-9.19945 -22.90238,-15.98911 -3.28763,-4.49943 -3.64623,-4.72475 -9.99866,-6.28268 -4.38506,-1.07544 -6.74702,-1.90491 -10.57132,-3.71244 -5.95124,-2.81279 -7.20279,-2.96293 -9.889809,-1.18635 -2.824165,1.86722 -3.692167,2.12338 -7.587714,2.23934 -3.863097,0.11497 -5.695786,-0.15559 -11.197804,-1.65325 -5.640902,-1.53544 -9.350115,-3.18771 -12.479165,-5.55883 -2.137606,-1.61984 -2.28506,-1.67838 -6.192553,-2.45854 -1.937728,-0.38687 -4.200502,-0.89015 -5.028388,-1.11837 -6.010478,-1.65681 -12.173496,-4.98478 -17.086376,-9.22646 -1.466455,-1.2661 -1.523966,-1.36682 -1.523966,-2.66839 0,-0.74395 0.07251,-1.35265 0.161131,-1.35265 0.08862,0 1.043086,0.81021 2.121032,1.80047 4.014394,3.68781 10.771883,7.51108 15.904265,8.9984 3.452112,1.00039 7.235192,1.65704 7.577037,1.31518 0.187324,-0.18731 -0.03399,-1.19889 -0.681894,-3.11677 -2.690065,-7.96295 -1.87188,-16.82941 2.332924,-25.28133 6.240069,-12.5429 17.503322,-21.50143 27.937587,-22.22092 1.317093,-0.0908 2.394713,-0.28341 2.394713,-0.42798 0,-0.4464 -2.48156,-2.59648 -5.005692,-4.33704 -4.448733,-3.06771 -9.421718,-5.04997 -14.363152,-5.72525 -3.808913,-0.52052 -9.374341,-0.22411 -12.788731,0.68111 -7.25701,1.92397 -14.275186,6.87893 -19.58909,13.83027 -1.848628,2.41827 -2.711451,2.94694 -3.22957,1.97883 -0.200516,-0.37467 -0.163124,-0.73811 0.135457,-1.3166 1.247733,-2.41744 6.288083,-7.92886 9.350645,-10.22455 5.486115,-4.11239 11.937067,-6.77216 17.689266,-7.29341 1.133666,-0.10274 2.007492,-0.27371 1.941833,-0.37994 -0.06566,-0.10624 -1.078641,-0.42821 -2.251074,-0.7155 -1.665527,-0.4081 -3.119219,-0.52135 -6.647441,-0.51784 -3.984286,0.004 -4.853944,0.0905 -7.389401,0.73517 -3.527628,0.89696 -6.247888,2.00597 -8.961635,3.65352 -1.499057,0.9101 -2.245461,1.21142 -2.711272,1.09451 -2.541562,-0.6379 2.81708,-4.51587 8.662411,-6.26886 4.385346,-1.31515 6.830644,-1.62239 11.631463,-1.46143 5.044421,0.16914 8.083662,0.74308 11.953584,2.25737 1.403343,0.54913 4.583621,1.70665 7.06728,2.57228 7.289151,2.54047 10.503973,4.42599 15.889841,9.31953 2.471984,2.246 3.702944,3.03807 5.372938,3.45721 0.89946,0.22575 0.82204,-0.35641 -0.3608,-2.71285 -2.108654,-4.20087 -6.784061,-10.68246 -10.457453,-14.49732 -4.227788,-4.39062 -7.837222,-6.89869 -11.6231,-8.0765 -1.596931,-0.49682 -6.35727,-0.6243 -9.151255,-0.24507 -1.875627,0.25457 -2.212884,0.0257 -1.88535,-1.27927 0.223857,-0.89191 1.62518,-1.28475 5.24178,-1.46943 5.923998,-0.30251 10.304894,1.52683 16.329201,6.81863 5.002227,4.394 11.626327,13.41911 14.861067,20.24772 1.01871,2.15051 1.44617,2.76297 2.27149,3.25452 0.55916,0.33302 2.07681,1.26405 3.37258,2.06896 1.29576,0.8049 2.4206,1.46346 2.49963,1.46346 0.079,0 0.2124,-0.2627 0.29636,-0.58379 0.2195,-0.83936 -3.17526,-14.20181 -4.64294,-18.27554 -1.62851,-4.52014 -4.78585,-10.97344 -7.04191,-14.39297 -1.880394,-2.85015 -2.079894,-3.40732 -1.416984,-3.95749 1.134654,-0.94167 2.968934,1.33296 6.134174,7.60677 2.60664,5.16661 4.28416,9.35482 5.69095,14.20841 0.57808,1.99444 1.13784,3.62626 1.24391,3.62628 0.27518,3e-5 0.40172,-0.89011 1.31469,-9.24839 1.34537,-12.31693 2.97262,-21.62999 5.31791,-30.4354 1.51468,-5.68689 2.83344,-12.46369 2.49189,-12.80524 -0.25791,-0.25791 -5.95493,1.25951 -9.07683,2.41764 -3.85909,1.43161 -7.37179,3.32383 -11.59307,6.24495 -5.320886,3.68205 -8.045048,5.20464 -15.526603,8.67819 -3.646165,1.69284 -12.635247,6.61438 -17.867783,9.78264 -7.520398,4.55354 -11.066809,6.45881 -17.732686,9.5267 -6.826564,3.14184 -9.58297,4.70687 -11.798918,6.6992 l -1.394405,1.25369 v -1.48819 c 0,-1.70251 0.03599,-1.74786 2.878555,-3.62748 1.720206,-1.13747 4.642525,-2.65461 8.068705,-4.18893 7.229198,-3.2374 12.22775,-5.9529 21.422854,-11.63813 1.622143,-1.00296 2.995824,-1.82355 3.052624,-1.82355 0.0568,0 0.884834,-0.44565 1.840073,-0.99032 1.699442,-0.96901 11.345803,-5.83891 14.599832,-7.37062 3.009312,-1.41652 6.525506,-3.47729 10.947268,-6.41599 8.218054,-5.4617 11.119694,-6.72323 21.408354,-9.30758 1.33468,-0.33526 2.54691,-1.82843 3.07422,-3.78672 0.3575,-1.32767 0.53093,-1.01239 -2.60282,-4.73182 -9.23806,-10.9646 -14.07443,-25.12504 -14.07916,-41.22254 -2.8e-4,-1.24183 -0.0951,-2.25787 -0.21063,-2.25787 -0.11548,0 -0.8748,-0.58159 -1.68738,-1.29241 -3.87359,-3.38852 -6.088004,-9.85277 -6.146834,-17.9437 -0.0319,-4.38028 -0.0942,-4.56141 -1.572785,-4.56999 -1.236539,-0.007 -1.833356,-0.78148 -2.284709,-2.96416 -0.643346,-3.11113 -0.608035,-3.27966 0.819509,-3.91113 0.678435,-0.3001 2.248685,-0.79374 3.489445,-1.09696 3.233274,-0.79018 3.087874,-0.71874 2.594114,-1.2744 -1.08714,-1.22341 -2.652554,-6.21216 -2.660444,-8.47842 -0.002,-0.63973 -0.0614,-1.16314 -0.13146,-1.16314 -0.0701,0 -0.90139,0.4176 -1.847355,0.92799 -1.60931,0.86831 -3.373749,1.5188 -5.260971,1.93954 l -0.804224,0.17929 1.088581,-1.18131 c 1.322076,-1.43469 4.074935,-5.11452 4.292358,-5.73772 0.09154,-0.26237 -0.166078,-0.89231 -0.61557,-1.50525 -1.756436,-2.39513 -3.16124,-5.79092 -4.021087,-9.72003 -0.788427,-3.60276 -0.659901,-10.04547 0.286887,-14.38083 3.36828,-15.423461 13.497885,-31.053731 27.306695,-42.135024 18.2949,-14.681296 40.73748,-21.560026 66.34803,-20.335898 17.01143,0.81311 30.36058,4.433461 40.06861,10.866799 3.71114,2.459303 8.58219,7.158948 11.10141,10.710754 1.62027,2.284397 1.63313,2.294764 4.63528,3.737745 3.40067,1.634529 5.81691,3.365149 8.64037,6.188601 8.30168,8.301682 13.31267,19.679713 14.50722,32.940353 0.38857,4.31343 0.17577,10.03261 -0.42958,11.54553 -0.43561,1.08871 -1.58202,2.0017 -2.51346,2.0017 -0.48305,0 -0.5112,0.33057 -0.51851,6.08941 -0.009,6.79723 -0.36714,9.64986 -1.7546,13.96068 -0.49445,1.53624 -0.70288,2.56644 -0.5311,2.62497 0.73581,0.25069 2.70067,2.00092 3.85536,3.43422 2.78326,3.45481 3.85742,9.26807 2.94711,15.94945 -1.02334,7.51096 -5.01593,15.75241 -10.76993,22.2311 -0.69654,0.78427 -1.19481,1.54186 -1.10726,1.68352 0.0875,0.14167 0.92165,0.26091 1.85355,0.26499 0.93189,0.004 2.80276,0.11858 4.15749,0.25446 1.35472,0.13588 4.49522,0.44501 6.97888,0.68695 9.5041,0.92585 13.69919,2.35975 17.25647,5.89832 1.47693,1.46915 1.96898,2.20329 2.78784,4.15942 1.29494,3.09346 2.47738,6.81134 3.6784,11.5658 0.53322,2.11084 1.07872,4.04492 1.21225,4.29794 0.13353,0.25303 1.32259,1.0294 2.64239,1.72528 4.33,2.283 7.60537,5.44425 9.92898,9.58298 1.45688,2.59495 2.15031,4.7894 2.53686,8.02837 l 0.32483,2.72193 2.18584,1.88876 c 2.47764,2.14089 5.02121,5.04561 6.18745,7.06601 0.78322,1.35682 0.78992,1.40665 0.79247,5.88625 l 0.003,4.51784 -1.99539,-1.92547 c -3.3804,-3.26193 -8.2651,-5.31401 -12.67914,-5.32653 -5.41044,-0.0154 -12.87324,2.69888 -18.00903,6.54992 -4.71191,3.53321 -10.18002,9.15599 -14.55471,14.96641 -9.60975,12.76339 -15.55408,28.27849 -17.33962,45.25719 -0.4167,3.96242 -0.48177,7.09207 -0.14796,7.11682 0.15053,0.0112 1.14249,-1.99112 2.20437,-4.44955 4.29786,-9.95017 10.47402,-20.12047 18.1849,-29.94508 6.03825,-7.69347 14.45668,-14.47913 21.21033,-17.09653 3.04897,-1.18165 6.62867,-1.87072 9.71569,-1.87019 2.97826,5.4e-4 3.92675,0.33212 4.05319,1.41713 0.11906,1.0216 -0.57514,1.32891 -2.28042,1.00948 -3.19159,-0.59783 -9.85809,0.90651 -13.81476,3.11739 -8.63706,4.82615 -15.4257,11.61867 -23.61468,23.62817 -7.76017,11.38062 -12.83687,21.74865 -14.79806,30.22174 -1.3065,5.64463 -1.78066,12.91966 -1.29237,19.82924 0.34491,4.88073 0.46885,5.70445 0.82519,5.48422 0.11943,-0.0738 1.31134,-1.75542 2.6487,-3.73693 5.53583,-8.2022 14.53023,-18.284 21.45242,-24.04593 3.68658,-3.06865 9.3886,-6.77761 13.53741,-8.80562 6.99497,-3.41918 16.4389,-6.01371 17.79453,-4.88866 0.48449,0.40209 0.54804,1.25776 0.11333,1.52643 -0.16599,0.10258 -1.6598,0.41821 -3.31957,0.70139 -8.04703,1.37298 -17.29154,5.80919 -25.00921,12.00135 -5.39856,4.33144 -10.85993,9.65814 -15.28068,14.90387 -2.25916,2.68077 -6.66457,8.67302 -8.1643,11.10512 -3.25421,5.27735 -4.98488,10.72763 -4.43671,13.97221 l 0.19127,1.13213 0.9976,-0.9439 c 5.67053,-5.36528 14.09169,-9.9738 22.77121,-12.46162 6.12458,-1.7555 8.44395,-2.1051 13.94183,-2.10143 4.35641,0.003 5.37128,0.0873 7.2709,0.60494 2.92445,0.79691 4.02378,1.26589 6.08525,2.59601 1.47044,0.94874 1.71251,1.21731 1.64209,1.8217 -0.0469,0.40232 -0.28159,0.74661 -0.54271,0.79609 -0.25307,0.048 -1.87535,-0.5406 -3.60507,-1.30795 -4.07566,-1.80802 -6.21068,-2.25106 -10.85046,-2.2515 -7.41315,0 -15.89637,2.15938 -23.9688,6.10315 -4.63529,2.26458 -11.58215,7.40687 -10.74046,7.95042 1.10631,0.71445 2.50416,0.80545 5.81562,0.37856 4.40107,-0.56734 12.05111,-0.5894 15.62009,-0.0451 6.4898,0.98985 12.97989,3.44773 18.02932,6.82792 4.71304,3.155 9.94129,9.79864 9.69653,12.3216 -0.0738,0.76147 -0.18342,0.86634 -0.90506,0.86634 -0.75252,0 -0.92143,-0.19289 -2.02338,-2.31066 -0.89021,-1.71081 -1.8372,-2.96693 -3.64788,-4.83861 -3.93532,-4.06786 -8.38757,-6.78432 -14.32083,-8.73755 -5.68119,-1.87023 -7.16206,-2.08912 -15.14034,-2.23806 -5.92775,-0.11068 -7.19524,-0.0697 -7.09559,0.22923 0.0667,0.2002 1.20881,1.01588 2.53796,1.81262 7.71517,4.62486 15.31972,11.98895 19.41774,18.80376 1.17088,1.94713 1.25831,2.8089 0.30912,3.04714 -0.91155,0.22877 -1.05338,0.10662 -2.66689,-2.29728 -5.27096,-7.85297 -13.61477,-15.33818 -21.55472,-19.3367 -5.72198,-2.88153 -14.62869,-5.34773 -20.8986,-5.78666 l -2.68402,-0.18789 0.22089,0.79412 c 0.12148,0.43677 0.21293,1.90252 0.20321,3.25725 -0.0244,3.40205 -0.73968,5.18645 -2.96887,7.40653 -1.38695,1.38127 -2.07866,1.82244 -4.12917,2.63358 -2.07909,0.82244 -2.60456,1.16115 -3.37019,2.17232 -1.70014,2.24539 -3.66778,4.03486 -5.4888,4.99179 -2.23959,1.17685 -2.52016,1.47911 -4.89557,5.27367 -4.89392,7.81774 -12.13133,16.02356 -17.12593,19.41749 -0.55188,0.375 -1.00341,0.79036 -1.00341,0.92302 0,0.65793 13.25783,10.10689 20.66295,14.72666 15.05732,9.39365 27.31741,14.83674 38.46858,17.07885 4.48511,0.90181 11.96242,0.91218 16.17203,0.0224 6.97807,-1.47487 14.24762,-4.58072 18.88703,-8.06931 8.71355,-6.55212 14.56538,-13.30483 19.27352,-22.24064 1.56959,-2.97905 2.69533,-5.59977 4.93744,-11.49462 l 1.45732,-3.83155 0.007,2.92695 0.007,2.92694 -1.79916,4.46246 c -4.15815,10.31344 -6.39232,14.02467 -12.21235,20.28609 -9.38342,10.09507 -22.07802,16.61113 -34.97749,17.95372 -3.19108,0.33214 -4.06897,0.32911 -7.25256,-0.0249 z m -63.15726,-38.58742 c 3.04012,-2.1947 6.9721,-5.96702 9.79407,-9.39641 2.5525,-3.10191 7.04114,-9.65165 6.90151,-10.07055 -0.0508,-0.15239 -0.35616,-0.37467 -0.67858,-0.49394 -0.48536,-0.17954 -0.97263,0.13249 -2.83255,1.81385 -2.47529,2.23765 -3.3209,2.60307 -7.22662,3.12292 -1.47262,0.19602 -2.72118,0.20376 -3.81352,0.0235 l -1.62407,-0.2678 -1.76681,1.36395 c -3.66819,2.83181 -6.27021,3.61213 -10.72592,3.21658 -1.42769,-0.12674 -3.39631,-0.19593 -4.37472,-0.15376 -1.55085,0.0669 -1.78917,0.14815 -1.85874,0.63407 -0.0442,0.30888 0.19982,0.81987 0.54737,1.14615 1.52194,1.42873 14.3615,10.73948 14.816,10.74397 0.27763,0.003 1.55678,-0.75446 2.84258,-1.68268 z m -20.51024,-12.40502 c 4.59083,-1.45024 6.62691,-4.22198 6.65529,-9.05987 0.0143,-2.4442 0.0276,-2.36622 -2.1489,-12.65629 -1.90108,-8.98795 -1.92829,-9.3838 -0.65796,-9.57281 0.40916,-0.0609 0.6608,0.10567 0.82932,0.5489 0.13306,0.34998 1.13889,4.63822 2.23519,9.52942 1.72314,7.68791 1.99551,9.26399 2.00983,11.62991 0.0192,3.17016 -0.43322,4.96343 -1.84112,7.29791 -0.9116,1.51157 -0.92049,1.55454 -0.35321,1.70678 1.14821,0.30814 5.01382,0.15554 6.61384,-0.26112 4.38074,-1.14073 7.49704,-4.61109 8.01061,-8.92078 0.47203,-3.96097 -0.44381,-11.39298 -2.67618,-21.71731 -0.58585,-2.70945 -1.13888,-5.29815 -1.22896,-5.75265 -0.10249,-0.51709 -0.0184,-1.02516 0.22464,-1.35757 0.32419,-0.44336 0.49773,-0.4814 1.04941,-0.23003 0.59556,0.27136 0.76078,0.7714 1.66921,5.05227 3.15151,14.85097 3.95466,22.74493 2.68056,26.34639 -0.91498,2.58632 -0.89448,2.62553 1.3728,2.62553 1.99239,0 4.69735,-0.56203 6.03561,-1.25409 0.96547,-0.49925 2.62617,-2.20595 3.17373,-3.26165 1.67611,-3.23149 1.83323,-9.91291 0.44087,-18.74718 -0.22537,-1.42999 -0.95737,-5.48833 -1.62664,-9.01852 -1.04312,-5.50206 -1.16215,-6.47325 -0.83365,-6.80172 0.23192,-0.23195 0.61036,-0.31112 0.95858,-0.20061 0.73407,0.23298 1.13279,1.60859 2.2242,7.67356 2.35735,13.09988 2.84138,19.4127 1.87413,24.44277 -0.40442,2.10319 -0.31971,2.19977 1.68821,1.92516 4.86659,-0.66554 9.06187,-5.11213 10.28865,-10.90492 1.39981,-6.60988 -1.6691,-23.14618 -5.68865,-30.65233 -2.08452,-3.89268 -5.25982,-6.79743 -10.24004,-9.3676 -3.99351,-2.06093 -7.74453,-3.41571 -22.82903,-8.24523 -27.8722,-8.92366 -38.38925,-11.94477 -41.58201,-11.94477 -1.03715,0 -1.68466,0.79176 -3.59883,4.40058 -1.99521,3.76161 -3.2092,5.37902 -6.02703,8.02981 -2.6264,2.47074 -5.27014,4.23583 -8.86486,5.91867 -1.92231,0.89989 -3.05084,1.62222 -3.75884,2.4059 -3.65584,4.04657 -4.24156,11.13821 -1.24352,15.05593 0.49323,0.64455 1.92264,1.86276 3.17649,2.70721 1.95372,1.31577 2.5603,1.92929 4.24206,4.29058 5.84314,8.20418 12.62206,12.66171 26.29802,17.29246 5.71382,1.93473 7.09817,2.62165 8.35415,4.14531 1.22284,1.48347 3.58346,6.29903 3.76738,7.68531 0.15596,1.17543 0.1508,1.18433 -0.63436,1.09473 -0.70611,-0.0806 -0.96897,-0.43075 -2.4337,-3.24176 -0.90314,-1.73325 -1.91523,-3.53249 -2.24907,-3.99827 -0.55567,-0.77528 -3.4509,-2.51401 -4.93506,-2.9637 -0.58271,-0.17658 -0.61579,-0.1113 -0.61579,1.21466 0,2.27002 0.77514,5.16114 2.12904,7.94081 1.03998,2.13518 1.66005,2.99257 3.46862,4.79616 4.52369,4.51123 9.47042,5.99354 14.59697,4.37406 z m 52.13709,-19.02467 c 1.76219,-0.82832 2.99946,-1.97089 3.87367,-3.5771 1.51537,-2.78421 1.19929,-6.96073 -0.74281,-9.81528 -1.11185,-1.63424 -4.56992,-5.21604 -5.03585,-5.21604 -0.45567,0 -0.46584,-0.18567 0.19474,3.55785 0.81168,4.59988 0.97708,9.40148 0.43129,12.52104 -0.62613,3.57883 -0.68897,3.45455 1.27896,2.52953 z m 21.004,-17.59933 c 0.31732,-1.59642 0.30085,-2.69027 -0.1214,-8.0648 -0.6133,-7.80613 -0.62875,-9.38675 -0.24394,-24.96503 0.25827,-10.45575 0.41849,-13.40976 0.89804,-16.55773 1.74228,-11.43694 4.33066,-19.73307 9.30731,-29.83127 3.8284,-7.76827 7.09969,-12.51949 13.33353,-19.36562 6.98932,-7.67581 13.31818,-12.26204 19.8725,-14.40068 3.74476,-1.2219 5.46876,-1.5127 8.94312,-1.50849 4.82427,0.006 7.96252,1.05874 12.18463,4.08796 1.1626,0.83413 2.18193,1.44848 2.26518,1.36524 0.27182,-0.27183 -2.62485,-5.71811 -3.88787,-7.30991 -1.53431,-1.93368 -5.44092,-5.3882 -7.91815,-7.0018 -2.56108,-1.66823 -5.5441,-3.00605 -8.20075,-3.67785 -3.10314,-0.78473 -7.85833,-0.59624 -10.93402,0.43341 -5.85402,1.95974 -10.56031,5.11403 -18.34135,12.29292 -8.4037,7.75336 -10.67891,9.62159 -20.3145,16.68071 -9.2046,6.74337 -12.84094,10.1109 -14.26777,13.21305 -0.80604,1.75247 -1.12983,4.16212 -1.43978,10.71517 -0.13659,2.88775 -0.33833,5.39604 -0.44831,5.57399 -0.10998,0.17795 -3.23997,2.32255 -6.95555,4.76577 -3.71557,2.44323 -8.21719,5.52372 -10.0036,6.84555 -3.05894,2.26342 -3.21722,2.42666 -2.71896,2.80426 0.44539,0.33752 1.52453,0.37312 6.82374,0.22507 11.43645,-0.31949 20.51432,-1.47258 26.91602,-3.41893 1.28281,-0.39002 1.91933,-0.45901 2.43303,-0.2637 l 0.6957,0.2645 -0.19498,3.33348 c -0.40935,6.99836 -1.15851,13.0083 -1.74556,14.00327 -0.53075,0.89956 -0.56041,1.53494 -0.7187,15.398 -0.17419,15.25654 -0.27299,17.51351 -0.82481,18.84289 -0.48107,1.15893 -1.89019,2.31784 -6.37669,5.24439 -2.14498,1.39917 -3.8961,2.63797 -3.89137,2.75286 0.0258,0.62675 1.48889,1.15102 3.98495,1.42796 2.78016,0.30846 10.77892,1.82926 11.04659,2.10028 0.0821,0.0831 0.22286,-0.81847 0.3129,-2.00348 0.09,-1.18499 0.32891,-2.98565 0.53082,-4.00144 z m -15.32987,-0.80887 c 1.1253,-0.64249 3.29946,-2.05806 4.83148,-3.14567 2.76195,-1.96079 2.78782,-1.98963 3.06276,-3.41598 0.40721,-2.11255 0.56925,-28.61441 0.17695,-28.93998 -0.2013,-0.16709 -0.86388,0.12198 -1.93413,0.84378 -4.46182,3.00916 -10.47991,6.30842 -13.75986,7.54349 -3.7099,1.39698 -7.58569,1.40415 -10.8499,0.02 -1.94077,-0.8229 -5.80136,-3.07171 -9.73362,-5.66988 -2.88709,-1.90756 -3.41707,-2.16748 -3.74702,-1.83753 -0.43037,0.43037 -0.88522,4.25955 -0.59816,5.03558 0.10073,0.27228 0.66013,0.66537 1.24311,0.87351 2.46535,0.88027 7.32254,3.07705 9.10441,4.11773 6.26288,3.65772 9.31879,7.76883 12.19918,16.4115 l 1.26408,3.7929 3.06706,2.75052 c 1.68689,1.5128 3.1932,2.75899 3.34737,2.76933 0.15417,0.0104 1.201,-0.50686 2.32629,-1.14935 z M 91.589975,358.30883 c 1.651265,-0.26692 3.6947,-1.02354 3.6947,-1.36805 0,-0.10181 -0.58859,-0.32097 -1.307979,-0.48704 -2.610273,-0.60251 -4.540324,-1.5067 -5.868938,-2.74946 -4.198605,-3.9273 -5.236356,-12.79874 -2.5088,-21.44705 3.76722,-11.9448 15.763752,-22.08462 27.047892,-22.86172 l 2.44652,-0.16848 -0.94128,-0.79642 c -3.22959,-2.7326 -8.98983,-5.95714 -13.10393,-7.33549 -8.633449,-2.89247 -17.641664,-0.25481 -25.70393,7.52625 -4.005676,3.86596 -6.782366,7.63198 -9.288941,12.59853 -2.549083,5.05079 -3.609969,9.40509 -3.611518,14.82314 -0.0011,3.55862 0.448255,6.18772 1.591072,9.31078 1.517496,4.14696 3.684544,6.43811 8.108302,8.57269 3.686,1.77857 10.901645,3.7776 15.75213,4.36393 0.978411,0.11829 1.840508,0.23052 1.91577,0.24944 0.07526,0.0189 0.875781,-0.0851 1.77893,-0.23105 z m 10.169145,-3.72206 0.79553,-0.1591 -0.009,-6.61452 c -0.008,-5.9693 0.0506,-6.84193 0.59931,-8.94605 0.56541,-2.16818 0.57979,-2.42528 0.20526,-3.66977 -1.34438,-4.467 0.99861,-9.89728 6.51045,-15.0891 2.64538,-2.4918 5.25111,-4.1285 8.92945,-5.60875 l 2.57703,-1.03705 -0.93097,-0.57435 c -1.75723,-1.08408 -3.69224,-1.47044 -6.53196,-1.30421 -11.69489,0.68458 -23.562749,10.92318 -26.872347,23.18326 -0.90712,3.36035 -0.921794,9.64758 -0.02915,12.48585 1.107264,3.52064 3.329073,5.92783 6.179832,6.69545 1.915798,0.51589 7.216075,0.91037 8.576255,0.63834 z m 123.12467,-15.31446 c 0.89715,-0.23158 2.43169,-0.79299 3.4101,-1.24754 5.2734,-2.45003 15.35439,-8.80697 15.98452,-10.07964 0.36239,-0.73191 1.46386,-13.58889 1.18782,-13.86492 -0.0849,-0.0849 -1.42787,0.16211 -2.98443,0.54886 -7.34662,1.82533 -14.44903,2.59125 -26.07154,2.81154 l -9.00997,0.17077 -1.07013,0.96681 c -1.9368,1.74976 -3.49442,5.95216 -3.48446,9.40093 0.005,1.68405 0.0163,1.70501 1.6379,3.00275 3.2988,2.64004 9.83776,6.62033 12.99987,7.91309 2.25301,0.92111 4.79239,1.05058 7.40032,0.37735 z m -4.07857,-3.24955 c -4.36114,-1.61426 -5.01409,-7.96329 -1.0281,-9.99679 2.1213,-1.08219 4.1408,-0.97155 6.07655,0.33296 2.17736,1.46734 2.86678,4.83896 1.47506,7.21375 -1.26619,2.16058 -4.26392,3.28648 -6.52351,2.45008 z m 3.95794,-3.06056 c 2.61829,-2.50848 -0.3514,-6.57243 -3.58197,-4.90182 -1.10345,0.57062 -1.64511,1.4504 -1.64511,2.67206 0,2.81306 3.19547,4.17619 5.22708,2.22976 z m -102.38401,4.63004 c 5.74991,-1.66024 10.66497,-5.58721 13.06924,-10.44191 1.33912,-2.70389 1.52395,-4.81074 0.55072,-6.27727 -2.87261,-4.32856 -7.86845,-5.6353 -14.70181,-3.84548 -3.52773,0.92401 -6.65268,2.73557 -9.33568,5.41198 -3.16405,3.15632 -3.95544,4.75363 -3.93817,7.94867 0.0145,2.67677 0.48811,3.85519 2.22211,5.52853 2.68086,2.58714 6.93963,3.1752 12.13359,1.67548 z m -1.03023,-10.10481 c -0.9162,-0.46718 -3.89603,-3.49352 -3.89603,-3.95684 0,-0.14193 0.56427,-0.25808 1.25392,-0.25808 1.02795,0 1.4646,0.17264 2.42291,0.95789 1.56312,1.28085 2.28933,1.24746 7.14543,-0.32864 3.75507,-1.21876 3.9888,-1.26164 4.43656,-0.81387 0.43056,0.43055 0.43544,0.53904 0.0548,1.2181 -0.35332,0.63034 -1.02912,0.94726 -4.3763,2.05236 -4.76501,1.57321 -5.83413,1.74464 -7.04131,1.12908 z m 78.4328,9.93907 c 0.43397,-0.5229 1.21661,-11.18235 0.84743,-11.54194 -0.78121,-0.76092 -5.08381,6.63792 -5.37803,9.24821 -0.0791,0.70205 -0.0971,1.27703 -0.0399,1.27771 0.0572,0 0.84295,0.30568 1.7461,0.67772 1.87107,0.77077 2.41171,0.83552 2.82436,0.3383 z m -6.10064,-4.78617 c 0.49733,-1.3955 1.30168,-3.24285 1.78743,-4.10522 2.1385,-3.79643 7.23463,-9.85344 11.47929,-13.64372 3.37707,-3.01556 6.64339,-5.3898 14.35725,-10.4361 3.7686,-2.46536 7.0519,-4.68972 7.29621,-4.94303 0.3643,-0.3777 0.4964,-1.59293 0.7343,-6.75523 0.32295,-7.0077 0.65651,-8.63278 2.2526,-10.97441 2.26809,-3.32753 6.20478,-6.78989 14.92205,-13.1241 7.105,-5.16268 10.52374,-7.96495 16.98936,-13.92584 9.96557,-9.18761 15.78658,-13.16147 22.1306,-15.10802 2.19736,-0.67422 2.89131,-0.75679 6.43152,-0.76521 4.50679,-0.0107 5.80817,0.31887 10.66794,2.70181 l 2.54214,1.24652 -0.1344,-1.84616 c -0.40669,-5.58557 -5.145,-11.66565 -11.58568,-14.8664 -3.24594,-1.61312 -3.07109,-1.35279 -4.49048,-6.68483 -1.26173,-4.73981 -3.35307,-10.949 -4.35814,-12.9394 -1.14521,-2.26795 -2.54475,-3.61836 -4.99592,-4.82054 -3.21611,-1.57735 -7.90762,-2.54076 -14.92345,-3.06456 -3.59163,-0.26815 -3.70731,-0.16824 -2.00792,1.73431 0.77354,0.86602 1.86646,2.3751 2.4287,3.35351 l 1.02226,1.77893 2.51752,0.19469 c 6.43441,0.49762 8.8059,2.38121 8.81077,6.99808 0.004,3.99978 -3.75909,10.70785 -10.24387,18.25961 -7.22661,8.41564 -16.49748,16.97358 -19.71127,18.19546 -0.63181,0.24022 -0.69566,0.20075 -0.69566,-0.42999 0,-0.80214 1.9158,-2.79806 6.80948,-7.09423 5.94714,-5.22101 17.00081,-17.8163 17.00081,-19.37184 0,-0.51637 -3.83783,-10.02959 -5.36349,-13.29503 -0.65893,-1.41034 -1.88859,-3.59141 -2.73258,-4.84684 -2.84082,-4.2257 -5.28866,-5.85506 -8.80338,-5.8598 -1.72447,-0.002 -2.29693,0.13821 -4.37891,1.07499 -1.31729,0.59271 -3.25633,1.31326 -4.30896,1.60123 l -1.91387,0.52357 -0.76457,2.16032 c -0.42052,1.18818 -1.17412,3.10759 -1.67467,4.26535 l -0.91009,2.10503 0.71488,0.2704 c 0.39319,0.14871 1.5154,0.35015 2.49381,0.44764 1.84315,0.18366 3.84169,0.9098 4.74013,1.72227 1.59813,1.4452 2.1853,4.65072 1.43647,7.84207 -0.79737,3.39823 -2.52423,6.66505 -8.15441,15.42628 -4.26566,6.63788 -6.25487,9.77813 -10.69528,16.88395 -2.2575,3.6126 -5.05088,7.98466 -6.20752,9.7157 -1.84417,2.76001 -6.09532,9.88937 -11.4235,19.1577 -4.0915,7.11713 -10.63608,21.00306 -10.13508,21.50405 0.0661,0.0661 0.96344,-1.08133 1.99404,-2.54989 4.40952,-6.28337 9.31343,-11.99562 15.25425,-17.76868 2.87903,-2.79774 5.76091,-5.00384 6.55052,-5.01445 0.10506,-0.001 0.0536,0.39171 -0.11442,0.87361 -0.17256,0.49501 -1.92252,2.55385 -4.02256,4.73259 -10.71051,11.11186 -13.46682,14.5145 -19.13678,23.62424 -6.02524,9.68054 -9.25208,16.16174 -11.08721,22.26902 -1.26361,4.20528 -1.4482,5.56649 -0.80646,5.94716 1.08612,0.64424 1.47649,0.26029 2.4162,-2.37657 z M 156.32896,323.667 c 0.28479,-0.34315 0.3356,-4.69118 0.25987,-22.23661 -0.14057,-32.5664 -0.0739,-40.98827 0.36014,-45.48352 0.29344,-3.03928 0.30797,-4.05043 0.062,-4.31885 -0.17661,-0.19276 -1.66767,-0.70789 -3.31346,-1.14474 -3.71538,-0.98617 -5.34493,-1.55401 -8.70463,-3.03326 -1.45424,-0.64029 -2.70409,-1.10415 -2.77745,-1.03079 -0.33237,0.33238 -0.68061,4.66472 -0.52385,6.51715 0.46455,5.48963 1.77799,10.22672 4.2115,15.18932 1.46037,2.9781 2.47838,4.64578 5.58339,9.1466 1.17952,1.70975 1.22298,2.57978 0.13517,2.7057 -0.62251,0.0721 -0.97724,-0.23904 -2.49658,-2.18946 -6.32584,-8.12068 -9.47218,-16.40683 -9.5925,-25.26269 -0.0266,-1.95682 0.0513,-4.44854 0.17301,-5.53716 l 0.22135,-1.9793 -2.00028,-1.26657 c -3.81912,-2.41825 -5.0068,-3.27324 -8.24978,-5.93885 -1.7932,-1.47394 -3.39734,-2.63423 -3.56475,-2.57843 -0.9672,0.32241 -3.17636,8.06211 -3.18042,11.14248 -0.007,5.16844 2.0902,11.82159 5.41635,17.18445 2.69953,4.35253 5.62914,7.85421 13.26862,15.85955 6.43776,6.74607 8.71354,10.23114 10.68028,16.35551 1.72945,5.38546 2.7846,12.51815 2.26308,15.2981 -0.16957,0.9039 -0.27345,1.00967 -0.91749,0.93421 -0.89555,-0.10494 -1.09352,-0.7177 -1.13278,-3.50612 -0.0647,-4.5995 -1.32132,-10.23368 -3.31242,-14.85207 -1.21034,-2.80741 -2.03769,-3.88495 -2.46537,-3.21091 -0.15384,0.24245 -0.28621,6.09713 -0.32332,14.29986 -0.0346,7.63913 -0.0672,14.59748 -0.0726,15.46299 l -0.01,1.57367 1.09472,0.31548 c 1.29539,0.37333 7.80027,1.93528 8.24536,1.97989 0.16972,0.017 0.46789,-0.16103 0.6626,-0.39563 z m -12.49809,-8.98426 c 0.24535,-0.97755 0.23155,-11.50475 -0.0152,-11.59003 -0.12442,-0.043 -4.41354,-2.11142 -9.53138,-4.59648 -9.89953,-4.80689 -13.65811,-6.91099 -16.61952,-9.3038 -1.61941,-1.30848 -1.87123,-1.4303 -2.09446,-1.01319 -0.46981,0.87785 -0.91521,6.85066 -0.81555,10.93656 0.0959,3.93354 0.12552,4.10825 0.99457,5.87355 1.10512,2.24481 2.81272,3.85097 6.57832,6.18754 l 2.78046,1.72528 1.90759,-0.26435 c 2.89918,-0.40176 5.283,-0.0389 10.70815,1.63018 4.54566,1.39847 5.83808,1.48624 6.10701,0.41474 z m -16.60634,-4.05871 c -2.3924,-0.63292 -3.86552,-3.23456 -3.2208,-5.68817 1.24526,-4.73908 7.81627,-4.70673 9.08322,0.0447 0.94496,3.54393 -2.23335,6.60354 -5.86242,5.64346 z m 2.96699,-2.80208 c 1.47589,-1.47588 0.43477,-3.98082 -1.65453,-3.98082 -2.12377,0 -3.14902,2.54784 -1.60213,3.98145 0.97191,0.90074 2.35556,0.90047 3.25666,-5.4e-4 z m 13.80847,-14.68145 c 0,-5.71586 -0.0732,-7.02328 -0.43578,-7.78744 -0.23967,-0.50508 -2.37925,-2.92525 -4.7546,-5.37815 -8.333,-8.60501 -11.77762,-13.08921 -14.47061,-18.83777 -1.32842,-2.83568 -1.64732,-3.68604 -2.22868,-5.94289 -0.1648,-0.63973 -0.39896,-1.16315 -0.52037,-1.16315 -0.87283,0 -4.08671,16.6902 -5.29141,27.47917 l -0.33326,2.98468 1.77011,1.62926 c 3.31058,3.04718 8.37151,6.09987 16.58389,10.00322 5.28432,2.51165 8.49443,3.86331 9.20177,3.87455 0.44362,0.007 0.47894,-0.49904 0.47894,-6.86148 z m 49.44813,-18.32342 c 2.82037,-0.37876 7.65776,-1.66648 10.19457,-2.71381 4.78267,-1.97455 10.58807,-5.52696 15.48287,-9.47422 3.95266,-3.18749 5.30784,-4.77841 8.48957,-9.96636 2.94674,-4.80481 6.48868,-10.42805 8.94303,-14.19813 0.72302,-1.11062 1.31458,-2.20572 1.31458,-2.43356 0,-0.22784 -0.48715,-1.1856 -1.08256,-2.12836 -2.3754,-3.7612 -4.64269,-10.10917 -5.37164,-15.03961 -0.22255,-1.50525 -0.43552,-2.8408 -0.47326,-2.9679 -0.0377,-0.12709 -1.12943,1.36136 -2.42597,3.30769 -6.02356,9.04236 -13.70137,16.78681 -22.11994,22.31189 -3.35581,2.20241 -10.45568,5.759 -14.36828,7.19759 -6.5325,2.4019 -13.4187,3.63426 -21.47698,3.84355 -2.93137,0.0761 -5.36507,0.17373 -5.40822,0.21688 -0.0432,0.0431 0.23598,1.54471 0.6203,3.33681 0.38431,1.79209 0.941,4.42834 1.23709,5.85833 1.22714,5.92657 4.17314,9.24786 10.20141,11.50094 4.03986,1.50991 10.83799,2.07418 16.24343,1.34827 z m -15.7749,-25.28235 c 13.88491,-1.73135 26.11384,-7.67854 37.57117,-18.27167 4.56328,-4.21908 9.35985,-10.18909 13.15897,-16.3782 1.49396,-2.43379 3.77769,-7.4587 5.21964,-11.48483 0.56605,-1.58052 1.15492,-3.21705 1.3086,-3.63674 0.44894,-1.22611 1.05919,-1.38404 3.27091,-0.84648 2.60298,0.63266 5.1282,0.28875 8.04261,-1.09529 7.98874,-3.79384 15.70047,-15.42248 17.50388,-26.3944 0.59939,-3.64669 0.43744,-8.17443 -0.38396,-10.73426 -1.11659,-3.47979 -3.61093,-6.14623 -6.54833,-7.00015 -2.00769,-0.58366 -4.35608,-0.19 -6.92748,1.16123 -4.63633,2.43632 -8.82243,7.22513 -12.78699,14.62804 -0.77126,1.44014 -1.62156,2.80829 -1.88956,3.04032 -1.23582,1.06998 -2.89718,0.74715 -3.49295,-0.67875 -0.20858,-0.4992 -0.82966,-3.91758 -1.38018,-7.5964 -0.55052,-3.67883 -1.05154,-6.74036 -1.11337,-6.8034 -0.11626,-0.11854 -5.97809,1.15005 -7.91117,1.7121 l -1.09472,0.3183 -0.30682,4.3789 c -0.47218,6.73904 -1.80996,12.64266 -3.71169,16.37968 -1.262,2.47991 -4.16237,4.82267 -7.55918,6.1059 -6.987,2.63951 -22.35746,2.94509 -31.43571,0.62497 -7.63828,-1.95211 -11.06937,-6.54672 -13.36855,-17.90196 -0.37435,-1.84887 -0.6811,-4.14664 -0.68167,-5.10614 -8.2e-4,-1.23998 -0.15369,-1.99492 -0.52889,-2.61024 -0.4813,-0.78934 -0.6891,-0.88297 -2.35559,-1.06144 -2.99474,-0.32071 -6.91412,-0.0241 -8.40386,0.6361 -0.71499,0.31683 -1.30249,0.67535 -1.30555,0.79671 -0.003,0.12136 -0.0815,1.85247 -0.17439,3.84693 l -0.16884,3.62628 h 0.73035 c 0.41242,0 0.80241,0.18778 0.89588,0.43136 0.0921,0.24003 -0.38966,1.60571 -1.08613,3.07892 -0.68841,1.45615 -1.69895,4.18209 -2.24563,6.05764 -0.54669,1.87555 -1.77588,5.1392 -2.73154,7.25256 -1.87623,4.14912 -2.21736,5.36057 -1.93432,6.8693 0.26271,1.40039 1.82643,3.00144 3.56778,3.65296 3.13535,1.17309 9.12325,1.40229 14.29999,0.54737 2.20971,-0.36493 2.81017,-0.14972 2.81017,1.00717 0,0.94029 -0.66182,1.16611 -4.84539,1.65326 -9.30405,1.0834 -16.01232,-0.74622 -17.68884,-4.82448 -1.00242,-2.43847 -0.81451,-4.68058 0.65329,-7.79505 0.42438,-0.90047 0.73634,-1.67248 0.69325,-1.71557 -0.0431,-0.0431 -0.92791,0.28257 -1.96626,0.72371 -3.84279,1.63259 -8.37845,2.39636 -15.84566,2.66828 -5.05883,0.18422 -9.06623,-0.12676 -13.06539,-1.01388 -1.3155,-0.29182 -2.4547,-0.53057 -2.53156,-0.53057 -0.47223,0 0.14616,8.64927 0.9588,13.41039 2.9987,17.56884 13.35624,32.09654 29.6667,41.61111 6.40057,3.73373 14.77695,6.52452 22.05529,7.34824 3.39242,0.38394 11.66633,0.33569 15.06289,-0.0878 z m -18.50904,-21.09108 c -8.3776,-1.48033 -15.32351,-6.69855 -19.51641,-14.66198 l -1.37854,-2.61822 -2.21697,-0.99703 c -2.04721,-0.92069 -2.21026,-1.0534 -2.12931,-1.73308 0.18463,-1.55018 1.4502,-1.52006 6.92357,0.16475 4.14036,1.27448 6.23572,1.61723 11.99456,1.96202 10.27295,0.61505 20.31671,-0.65659 30.94393,-3.91779 3.88554,-1.19236 10.17478,-3.57543 10.96928,-4.15638 0.91057,-0.66582 0.22767,-1.00169 -2.0367,-1.00169 -1.95243,0 -2.17209,-0.0543 -2.33827,-0.57788 -0.35747,-1.1263 0.44059,-1.47473 3.37781,-1.47473 2.44388,0 2.81112,0.0724 4.43755,0.8742 0.97525,0.4808 2.25478,1.36833 2.8434,1.97229 0.8926,0.91583 1.07429,1.29312 1.09473,2.27314 0.0213,1.0236 -0.0559,1.18646 -0.59953,1.26358 -0.42227,0.0599 -0.88943,-0.19557 -1.44488,-0.79018 -0.45147,-0.4833 -0.86458,-0.83103 -0.91804,-0.77274 -0.0534,0.0583 -0.65203,1.21439 -1.33017,2.56911 -4.24988,8.49 -12.94398,16.28189 -22.14578,19.84769 -4.79812,1.85932 -11.79867,2.611 -16.53023,1.77492 z m 10.90696,-2.71341 c 4.14868,-0.91559 9.77033,-3.62819 13.88635,-6.70055 4.48337,-3.34657 9.4253,-9.06245 10.25711,-11.86348 0.22906,-0.77132 0.41647,-1.48849 0.41647,-1.59372 0,-0.10523 -1.69341,0.46169 -3.76312,1.25982 -4.9163,1.89584 -9.06047,3.13835 -14.43991,4.32939 -6.96407,1.5419 -9.53305,1.85062 -16.69136,2.00585 -6.37216,0.13817 -7.98797,0.0443 -15.70871,-0.91247 l -1.47726,-0.18307 0.19243,0.79554 c 0.28554,1.18042 2.49192,4.39274 4.3444,6.32511 3.26496,3.40575 7.85817,5.91637 12.39327,6.77408 2.60133,0.49198 7.81726,0.3755 10.59033,-0.2365 z m 75.02466,-35.58198 c -0.12331,-0.32132 0.3602,-1.00961 1.64161,-2.33692 2.0524,-2.12591 3.31442,-4.49661 3.73756,-7.02095 0.42152,-2.51465 -0.0911,-5.04344 -1.24152,-6.12417 -0.55255,-0.5191 -0.86448,-0.59867 -1.8394,-0.46926 -1.628,0.2161 -2.34794,1.17813 -3.64698,4.87336 -1.44,4.09622 -1.6598,4.36317 -1.91444,2.32509 -0.34426,-2.75532 0.84814,-6.50239 3.63104,-11.41041 3.5332,-6.23128 6.98549,-9.19021 10.05146,-8.61503 1.75094,0.32848 3.69035,2.59635 3.70324,4.33043 0.004,0.5312 -0.80026,0.0923 -1.88869,-1.03084 -0.65886,-0.67985 -1.47741,-1.30624 -1.81899,-1.39197 -0.94632,-0.23751 -2.96802,0.7954 -4.35988,2.22752 -1.23745,1.27324 -3.97289,5.42641 -3.97289,6.03197 0,0.17462 0.48916,0.38311 1.08703,0.46331 1.72901,0.2319 2.89641,1.12805 3.75464,2.8822 0.67501,1.37969 0.76174,1.8586 0.7532,4.15948 -0.007,1.97961 -0.16127,3.04822 -0.64488,4.47694 -1.18089,3.48873 -3.76699,6.48185 -5.97209,6.91202 -0.67988,0.13264 -0.92579,0.067 -1.06002,-0.28277 z m -4.65999,42.14466 c 1.48965,-1.62931 5.13558,-8.0071 5.98332,-10.46655 1.42016,-4.12019 1.07416,-7.15104 -0.93497,-8.19001 -1.35345,-0.69989 -6.36619,-1.08755 -9.1854,-0.71035 -1.29562,0.17336 -2.48754,0.44709 -2.64872,0.6083 -0.8078,0.80801 0.001,6.83536 1.5078,11.23055 0.71109,2.07473 2.84291,6.9691 3.4195,7.85066 0.54422,0.83209 0.85153,0.77874 1.85847,-0.3226 z m 33.01872,-13.90883 c 0.8977,-1.47183 1.66777,-4.16522 1.69266,-5.92022 0.0387,-2.72712 -0.95083,-3.71663 -4.11373,-4.11378 -2.01636,-0.25318 -3.05575,-0.1527 -3.05575,0.29539 0,0.14045 0.1945,0.63149 0.43224,1.09121 0.23773,0.45972 0.96341,2.33175 1.61262,4.16005 2.01989,5.68836 2.39794,6.18267 3.43196,4.48735 z M 134.39384,184.53975 c 5.80943,-0.88392 8.10572,-2.20414 9.72648,-5.59213 2.14456,-4.48295 3.20564,-12.74734 2.30408,-17.94581 -0.25818,-1.48872 -0.48448,-1.97386 -1.30393,-2.79538 -1.16974,-1.17269 -3.9736,-2.15253 -7.82567,-2.73479 -3.16191,-0.47794 -15.2693,-0.48165 -19.56823,-0.006 -3.05806,0.33835 -9.30892,1.30948 -9.44361,1.46714 -0.0368,0.043 0.15706,3.83451 0.43072,8.42552 1.09554,18.37952 1.02739,17.61144 1.60521,18.09181 0.50478,0.41963 4.95978,1.47152 7.27084,1.71673 2.83728,0.30106 13.26043,-0.0879 16.80411,-0.62709 z m 62.56352,0.24686 c 11.468,-0.81396 15.38605,-3.17519 17.24373,-10.39198 0.95216,-3.69903 1.28414,-6.32055 1.42675,-11.26652 0.16774,-5.81773 0.0151,-7.34762 -0.8303,-8.32239 -1.28221,-1.4784 -6.93413,-2.29367 -17.33424,-2.5004 -13.53143,-0.26896 -24.17751,1.10661 -27.96556,3.61342 -2.07667,1.37428 -2.58505,4.05309 -1.84333,9.71324 0.81501,6.21955 2.41581,11.31587 4.40526,14.02463 2.53983,3.45815 5.92455,4.58087 15.45568,5.1267 5.16013,0.2955 5.32429,0.29556 9.44201,0.003 z M 106.936,177.74239 c -0.15218,-4.47019 -0.8739,-16.34788 -1.13256,-18.63923 l -0.16546,-1.4657 -0.81627,0.7815 c -0.44896,0.42983 -1.26611,1.69136 -1.81589,2.80341 -0.90626,1.83308 -1.00985,2.27664 -1.10917,4.74939 -0.2202,5.48235 1.56657,11.96603 4.08946,14.83944 0.46744,0.53239 0.90332,0.96799 0.96861,0.96799 0.0653,0 0.0569,-1.81656 -0.0187,-4.0368 z m 45.53359,-22.24384 c 2.45977,-0.327 9.11934,-0.39587 10.2733,-0.10625 0.58484,0.14679 0.93204,-0.0746 2.26332,-1.44315 1.1324,-1.1641 2.00514,-1.77967 3.11832,-2.19943 8.0911,-3.05103 28.97305,-4.13368 43.61976,-2.26153 3.38253,0.43236 14.11223,2.32973 16.48118,2.91443 0.53752,0.13267 0.61579,0.0456 0.61579,-0.68526 0,-1.80154 -0.59507,-3.60629 -1.5714,-4.76583 -1.4307,-1.69916 -3.95397,-7.12929 -5.51712,-11.87295 -1.10883,-3.36496 -4.48013,-16.08569 -8.05915,-30.40915 -0.31029,-1.24183 -0.66213,-2.25788 -0.78186,-2.25788 -0.11972,0 -0.21768,0.13551 -0.21768,0.30114 0,0.62715 -3.12959,5.84143 -5.1196,8.52988 -2.61935,3.53866 -7.94019,8.81556 -11.309,11.21562 -2.97202,2.11737 -7.51478,4.44975 -11.04236,5.66945 -2.38597,0.82499 -2.42189,0.82889 -2.02292,0.21967 3.55225,-5.42417 6.7273,-12.34829 8.80487,-19.20153 0.96783,-3.19258 2.17417,-8.37203 1.99229,-8.55392 -0.0574,-0.0574 -0.57067,0.60568 -1.14065,1.47347 -9.74623,14.83863 -22.89474,25.5249 -37.08838,30.14307 -4.73817,1.54166 -9.94077,2.41358 -12.39099,2.07665 l -1.30689,-0.1797 2.46675,-2.58026 c 3.98383,-4.16717 8.02435,-9.65644 11.62843,-15.79789 1.61933,-2.75939 4.25528,-8.12573 4.25528,-8.66302 0,-0.16481 -1.77122,1.52356 -3.93604,3.75193 -8.58329,8.83523 -17.55618,15.36076 -28.08886,20.4276 -6.45114,3.10338 -12.12791,5.25029 -17.85699,6.75338 -1.65212,0.43345 -3.03143,0.82473 -3.06514,0.86952 -0.0337,0.0448 0.0118,3.22192 0.10103,7.0603 0.15746,6.77039 0.17867,6.97698 0.70968,6.91522 0.30105,-0.035 2.45629,-0.30655 4.78942,-0.60342 2.33314,-0.29687 6.95151,-0.68075 10.26306,-0.85308 13.58556,-0.70698 22.97134,0.73429 25.3009,3.88519 0.38132,0.51575 0.76419,0.75862 1.05862,0.67151 0.2537,-0.0751 1.50156,-0.27475 2.77303,-0.44378 z m -41.58506,-7.05484 c 0,-1.12508 1.09489,-4.01755 2.04048,-5.3905 2.45389,-3.56294 6.9688,-5.23108 14.92777,-5.51544 3.60186,-0.12869 4.64519,-0.0679 6.9132,0.40281 3.32399,0.68985 6.24603,2.17734 7.49565,3.8157 0.93589,1.22704 1.38108,3.22953 1.05154,4.72992 -0.16781,0.76405 -0.26501,0.83502 -0.91363,0.66708 -9.40038,-2.43388 -22.74696,-1.72527 -31.03607,1.64779 -0.36229,0.14743 -0.47894,0.0604 -0.47894,-0.35736 z m 97.37263,-3.61554 c -9.30639,-2.20737 -19.35272,-2.48756 -29.69023,-0.82804 -7.24348,1.16282 -7.35158,1.138 -7.31017,-1.67851 0.0276,-1.87821 0.65619,-3.45767 1.80105,-4.52561 0.35652,-0.33256 1.56934,-1.03024 2.69517,-1.5504 6.75418,-3.12063 19.55548,-4.12386 26.66771,-2.08995 4.92888,1.40953 7.8062,4.26612 9.02163,8.95664 0.47322,1.82621 0.53898,2.55802 0.22542,2.50853 -0.11289,-0.0178 -1.64765,-0.37452 -3.41058,-0.79266 z"
       id="path1"
       sodipodi:nodetypes="ssssscsscssssssssscssssssssssssssssssssssssssssssssssssssssssssssssssssssssscssssssssssscsssssssscssscssssssssssssssssssssssssssssssscssccssscssssssssssssssssssssssscsscssssscsssssssssssssssssscssssssssssssssscccssssscsssssccssssssccsssssssssssssssssssssssssssssssssssssssssssssssssssssssssssssssssssssssssssssssssscsssssssssscssssssssscsscssccsscssscssssssssssscssssscsssssssssssscsssssssssssssssssssssssssssssssssscsssssssssssssscsssssssscssssssssscsscsscsssssssssssssssssssssssssssssssscsssssssssssssscsssssssssssscssssssssssssssssssscssssssssssssssssssssssssssssssssssssssscssssscssssscssssssssssssssssssssssscsssssssssssssssssssssssssscsssssssssssssssssssssssssssssssssssssssssssssssssssssssssssssssssssssssssssssssssssssssssssscssssssssssssssssssssssssssssssssssssss" /><path
       style="opacity:1;fill:none;fill-opacity:1;stroke:#2c59c2;stroke-width:2.73681;stroke-dasharray:none;stroke-opacity:1"
       d="m 314.92405,260.81649 c 0,0 38.91226,36.46107 0.30642,153.1978"
       id="path2"
       sodipodi:nodetypes="cc" /><path
       style="opacity:0.22877;fill:#2c59c2;fill-opacity:1;stroke-width:0.273681"
       d="m 210.13676,407.27357 c 0,0 71.71081,25.5589 104.17452,4.28955 8.88548,-5.82153 -13.17503,33.70352 -20.22213,34.92909 -7.04709,1.2256 -26.86564,28.97444 -98.96578,-23.89885 -4.59593,-3.37033 10.11106,-7.35349 10.11106,-7.35349 z"
       id="path3"
       sodipodi:nodetypes="cssscc" /><path
       style="opacity:1;fill:none;fill-opacity:1;stroke:#2c59c2;stroke-width:2.18945;stroke-dasharray:none;stroke-opacity:1"
       d="m 39.378647,281.09605 c 0,0 -43.4464105,26.81722 -1.776608,57.1504"
       id="path4"
       sodipodi:nodetypes="cc" /><path
       style="opacity:0.2;fill:#2c59c2;fill-opacity:1;stroke:#2c59c2;stroke-width:2.18945;stroke-dasharray:none;stroke-opacity:1"
       d="m 21.193156,301.75972 c 0,0 33.672736,34.71267 39.21445,37.26456 24.788849,11.41495 28.165074,14.51584 28.165074,14.51584 l 9.316141,3.6831 c 0,0 -16.940749,1.57435 -34.014746,-6.71625 C 46.595648,342.1171 14.693524,332.09132 21.193156,301.75972 Z"
       id="path13"
       sodipodi:nodetypes="csccsc" /><path
       style="opacity:0.2;fill:#2c59c2;fill-opacity:1;stroke:none;stroke-width:8;stroke-dasharray:none;stroke-opacity:1"
       d="m 230.17629,214.43941 c 0,0 -15.67347,36.66472 -36.38484,45.34111 -20.71137,8.67638 -29.94752,-8.39651 -29.94752,-8.39651 0,0 45.06122,0.27989 66.33236,-36.9446 z"
       id="path14"
       sodipodi:nodetypes="cscc" /><path
       style="opacity:0.2;fill:#2c59c2;fill-opacity:1;stroke:none;stroke-width:8;stroke-dasharray:none;stroke-opacity:1"
       d="m 233.53489,212.7601 12.31487,0.55977 c 0,0 5.0379,1.11953 0.55976,8.95627 -4.47813,7.83673 -7.27696,12.31487 -7.27696,12.31487 0,0 -7.55686,-10.63557 -7.55686,-22.39067"
       id="path15"
       sodipodi:nodetypes="ccscc" /><path
       style="opacity:1;fill:#2c59c2;fill-opacity:1;stroke:none;stroke-width:8;stroke-dasharray:none;stroke-opacity:1"
       d="m 148.17045,221.99625 c 0,0 10.48853,11.82092 25.46939,3.3586 25.69326,-14.51348 21.83091,-22.11078 21.83091,-22.11078 0,0 -16.44838,22.06458 -42.82216,13.15452 -20.71136,-6.99708 -6.15743,2.79883 -6.15743,2.79883"
       id="path16"
       sodipodi:nodetypes="cscsc" /><g
       transform="matrix(0.01869491,0,0,-0.0186504,482.06741,527.65523)"
       fill="#000000"
       stroke="none"
       id="g14"
       style="fill:#2c59c2;fill-opacity:1"><path
         id="path14-1"
         d="m -10577.731,11901.07 c -6.889,-6.514 -15.45,-18.045 -18.746,-25.521 -7.676,-16.591 -5.837,-51.486 3.126,-67.07 9.781,-16.124 35.337,-33.261 56.178,-36.916 l 18.446,-3.013 188.148,108.736 c 211.333,122.135 206.449,118.3 208.895,157.191 2.285,38.291 -25.326,70.446 -65.696,75.476 -17.628,2.473 -24.585,0.478 -61.625,-17.89 -59.419,-28.769 -313.266,-176.488 -328.726,-190.993 z m 1647.5548,1221.093 c -10.5184,-11.649 -17.9089,-33.14 -17.0417,-51.377 0.8201,-20.797 314.707,-565.634 332.2513,-576.766 39.1753,-24.965 94.5949,-5.091 109.8604,39.689 12.4061,36.544 18.699,22.961 -152.2649,320.196 -104.5022,181.686 -158.3309,272.63 -165.5255,278.095 -29.9288,24.738 -78.9739,20.196 -107.2796,-9.837 z m -870.8857,-356.948 c -76.2078,-54.172 -136.036,-150.028 -133.5185,-213.398 0.8201,-20.797 16.3995,-48.763 33.3451,-59.734 23.8644,-15.076 46.3872,-17.253 69.5258,-6.412 25.0392,11.939 31.215,20.572 49.3598,66.51 23.2175,60.01 61.9944,99.134 122.4596,123.443 63.3445,25.467 118.1582,28.784 185.2148,10.817 45.8827,-11.973 73.1209,-27.631 265.1395,-153.674 197.3027,-129.066 218.7623,-139.961 297.2789,-152.318 74.5442,-11.615 131.3627,-5.62 164.9626,17.85 30.3976,21.113 30.3405,22.093 -5.5138,84.429 l -31.2633,54.353 -29.1358,-5.696 c -38.8097,-8.249 -89.348,-4.032 -127.1344,10.595 -20.4708,7.414 -57.5171,29.558 -103.5641,61.187 -127.8957,87.642 -247.8737,164.159 -295.2597,188.431 -155.2825,78.903 -327.0125,69.296 -461.8965,-26.383 z m -879.7601,-507.933 c -53.069,-43.332 -100.387,-101.065 -125.962,-154.335 -18.868,-40.278 -39.042,-118.788 -42.39,-165.797 -5.69,-84.32 8.926,-156.397 46.549,-228.852 39.867,-77.236 85.792,-123.623 164.18,-167.454 41.836,-23.428 119.68,-47.823 165.324,-52.337 146.939,-13.329 302.068,58.599 387.874,180.61 25.188,36.334 36.767,76.958 28.268,101.42 -16.504,47.183 -65.666,64.858 -109.377,39.596 -13.684,-7.908 -22.359,-17.48 -36.705,-40.965 -26.85,-44.891 -49.36,-66.509 -94.211,-92.43 -72.817,-41.577 -135.717,-51.087 -206.965,-31.996 -152.293,41.128 -227.738,179.34 -185.224,339.637 22.976,87.727 68.992,144.201 152.899,187.629 48.444,24.958 101.593,39.975 151.512,42.996 72.432,4.384 139.213,-12.224 341.307,-85.345 118.1968,-42.602 203.5679,-74.801 253.2816,-95.195 103.2383,-42.131 142.2594,-50.979 218.6741,-50.878 79.1326,0.66 163.4123,27.59 238.1668,76.364 52.9848,34.673 85.8517,67.342 121.4908,119.845 24.9693,36.714 30.3178,49.428 43.4542,97.029 25.3511,94.163 17.222,122.384 -48.0512,163.666 -21.631,13.834 -46.5885,30.809 -55.2564,37.955 l -15.8624,12.61 0.9743,-36.914 c 1.1314,-73.287 -14.9387,-141.322 -44.402,-185.191 -54.9169,-82.383 -162.2853,-137.851 -263.7791,-135.734 -35.1902,0.427 -83.1449,14.241 -165.4752,48.197 -161.8286,66.511 -387.7105,146.649 -467.0065,165.646 -109.176,26.039 -199.94,22.708 -302.531,-10.247 -36.842,-11.67 -123.353,-57.615 -150.757,-79.53 z m 1594.6826,1127.231 c -27.1555,-32.913 -26.0369,-82.404 2.933,-114.281 17.0227,-19.029 56.7668,-33.537 79.2696,-28.635 71.0434,14.723 94.7027,110.947 37.7444,154.503 -35.9731,27.322 -91.6513,21.985 -119.947,-11.587 z"
         sodipodi:nodetypes="cccccsccccccccscccccccsccccsccccccccccccccscccccsccccccccccccccccccccc"
         style="fill:#2c59c2;fill-opacity:1;stroke-width:0.438745" /></g></g></svg>
