{
    "asset" : {
        "generator" : "Khronos glTF Blender I/O v3.4.50",
        "version" : "2.0"
    },
    "extensionsUsed" : [
        "KHR_materials_transmission",
        "KHR_materials_ior"
    ],
    "scene" : 0,
    "scenes" : [
        {
            "name" : "Scene",
            "nodes" : [
                0,
                1,
                2
            ]
        }
    ],
    "nodes" : [
        {
            "mesh" : 0,
            "name" : "Roundcube.002",
            "rotation" : [
                0,
                0.3826834261417389,
                0,
                0.9238795638084412
            ],
            "translation" : [
                -5.325644493103027,
                0.9793987274169922,
                -3.1063172817230225
            ]
        },
        {
            "mesh" : 1,
            "name" : "Curve.002",
            "rotation" : [
                0.6532815098762512,
                0.27059805393218994,
                -0.27059805393218994,
                0.6532815098762512
            ],
            "scale" : [
                -205.8000030517578,
                -205.8000030517578,
                -205.79998779296875
            ],
            "translation" : [
                -5.541253089904785,
                1.0289474725723267,
                -4.293757915496826
            ]
        },
        {
            "mesh" : 2,
            "name" : "Curve"
        }
    ],
    "materials" : [
        {
            "doubleSided" : true,
            "emissiveFactor" : [
                0.00340458145365119,
                0.019222795963287354,
                0.06070562079548836
            ],
            "extensions" : {
                "KHR_materials_transmission" : {
                    "transmissionFactor" : 1
                },
                "KHR_materials_ior" : {
                    "ior" : 1.4500000476837158
                }
            },
            "name" : "Material.005",
            "pbrMetallicRoughness" : {
                "baseColorFactor" : [
                    0.007287653628736734,
                    0.041821978986263275,
                    0.10652246326208115,
                    1
                ],
                "roughnessFactor" : 0
            }
        },
        {
            "doubleSided" : true,
            "emissiveFactor" : [
                0.036862313747406006,
                0.26002803444862366,
                0.375718891620636
            ],
            "name" : "Material.001",
            "pbrMetallicRoughness" : {
                "baseColorFactor" : [
                    0.07618540525436401,
                    0.37626221776008606,
                    0.539479672908783,
                    1
                ],
                "roughnessFactor" : 0.5
            }
        },
        {
            "doubleSided" : true,
            "name" : "SVGMat.007",
            "pbrMetallicRoughness" : {
                "baseColorFactor" : [
                    0.08650045841932297,
                    0.34191441535949707,
                    0.05612849071621895,
                    1
                ],
                "metallicFactor" : 0,
                "roughnessFactor" : 0.4000000059604645
            }
        }
    ],
    "meshes" : [
        {
            "name" : "Roundcube.002",
            "primitives" : [
                {
                    "attributes" : {
                        "POSITION" : 0,
                        "NORMAL" : 1
                    },
                    "indices" : 2,
                    "material" : 0
                }
            ]
        },
        {
            "name" : "Curve.002",
            "primitives" : [
                {
                    "attributes" : {
                        "POSITION" : 3,
                        "TEXCOORD_0" : 4,
                        "NORMAL" : 5
                    },
                    "indices" : 6,
                    "material" : 1
                }
            ]
        },
        {
            "name" : "Curve.004",
            "primitives" : [
                {
                    "attributes" : {
                        "POSITION" : 7,
                        "TEXCOORD_0" : 8,
                        "NORMAL" : 9
                    },
                    "indices" : 10,
                    "material" : 2
                }
            ]
        }
    ],
    "accessors" : [
        {
            "bufferView" : 0,
            "componentType" : 5126,
            "count" : 600,
            "max" : [
                1,
                1,
                1
            ],
            "min" : [
                -1,
                -1,
                -1
            ],
            "type" : "VEC3"
        },
        {
            "bufferView" : 1,
            "componentType" : 5126,
            "count" : 600,
            "type" : "VEC3"
        },
        {
            "bufferView" : 2,
            "componentType" : 5123,
            "count" : 900,
            "type" : "SCALAR"
        },
        {
            "bufferView" : 3,
            "componentType" : 5126,
            "count" : 2103,
            "max" : [
                0.006450129672884941,
                0.00010000002657761797,
                0.0028489914257079363
            ],
            "min" : [
                4.111398448003456e-05,
                -0.00012023768795188516,
                -0.0028489914257079363
            ],
            "type" : "VEC3"
        },
        {
            "bufferView" : 4,
            "componentType" : 5126,
            "count" : 2103,
            "type" : "VEC2"
        },
        {
            "bufferView" : 5,
            "componentType" : 5126,
            "count" : 2103,
            "type" : "VEC3"
        },
        {
            "bufferView" : 6,
            "componentType" : 5123,
            "count" : 10740,
            "type" : "SCALAR"
        },
        {
            "bufferView" : 7,
            "componentType" : 5126,
            "count" : 929,
            "max" : [
                0.0722503662109375,
                0,
                -0.0001513063907623291
            ],
            "min" : [
                3.509363379592973e-18,
                0,
                -0.08154666423797607
            ],
            "type" : "VEC3"
        },
        {
            "bufferView" : 8,
            "componentType" : 5126,
            "count" : 929,
            "type" : "VEC2"
        },
        {
            "bufferView" : 9,
            "componentType" : 5126,
            "count" : 929,
            "type" : "VEC3"
        },
        {
            "bufferView" : 10,
            "componentType" : 5123,
            "count" : 2040,
            "type" : "SCALAR"
        }
    ],
    "bufferViews" : [
        {
            "buffer" : 0,
            "byteLength" : 7200,
            "byteOffset" : 0,
            "target" : 34962
        },
        {
            "buffer" : 0,
            "byteLength" : 7200,
            "byteOffset" : 7200,
            "target" : 34962
        },
        {
            "buffer" : 0,
            "byteLength" : 1800,
            "byteOffset" : 14400,
            "target" : 34963
        },
        {
            "buffer" : 0,
            "byteLength" : 25236,
            "byteOffset" : 16200,
            "target" : 34962
        },
        {
            "buffer" : 0,
            "byteLength" : 16824,
            "byteOffset" : 41436,
            "target" : 34962
        },
        {
            "buffer" : 0,
            "byteLength" : 25236,
            "byteOffset" : 58260,
            "target" : 34962
        },
        {
            "buffer" : 0,
            "byteLength" : 21480,
            "byteOffset" : 83496,
            "target" : 34963
        },
        {
            "buffer" : 0,
            "byteLength" : 11148,
            "byteOffset" : 104976,
            "target" : 34962
        },
        {
            "buffer" : 0,
            "byteLength" : 7432,
            "byteOffset" : 116124,
            "target" : 34962
        },
        {
            "buffer" : 0,
            "byteLength" : 11148,
            "byteOffset" : 123556,
            "target" : 34962
        },
        {
            "buffer" : 0,
            "byteLength" : 4080,
            "byteOffset" : 134704,
            "target" : 34963
        }
    ],
    "buffers" : [
        {
            "byteLength" : 138784,
            "uri" : "react.bin"
        }
    ]
}
