{
    "asset" : {
        "generator" : "Khronos glTF Blender I/O v3.4.50",
        "version" : "2.0"
    },
    "scene" : 0,
    "scenes" : [
        {
            "name" : "Scene",
            "nodes" : [
                0,
                1,
                2
            ]
        }
    ],
    "nodes" : [
        {
            "mesh" : 0,
            "name" : "Cube",
            "rotation" : [
                0,
                -0.7071067094802856,
                0,
                0.7071068286895752
            ],
            "scale" : [
                0.3208111524581909,
                1,
                1
            ],
            "translation" : [
                0,
                1,
                0
            ]
        },
        {
            "mesh" : 1,
            "name" : "Curve",
            "rotation" : [
                -0.7071068286895752,
                0,
                0,
                0.7071068286895752
            ],
            "scale" : [
                9.368182182312012,
                9.368182182312012,
                9.368182182312012
            ],
            "translation" : [
                -0.004269578028470278,
                1.0133559703826904,
                0.3690059185028076
            ]
        },
        {
            "mesh" : 2,
            "name" : "Curve.001",
            "rotation" : [
                -0.7071068286895752,
                0,
                0,
                0.7071068286895752
            ],
            "scale" : [
                9.368182182312012,
                9.368182182312012,
                9.368182182312012
            ],
            "translation" : [
                -0.004533372353762388,
                1.0423924922943115,
                0.2741251587867737
            ]
        }
    ],
    "materials" : [
        {
            "doubleSided" : true,
            "name" : "Material.002",
            "pbrMetallicRoughness" : {
                "baseColorFactor" : [
                    0,
                    0.046847864985466,
                    0.8000000715255737,
                    1
                ],
                "metallicFactor" : 0,
                "roughnessFactor" : 0.5
            }
        },
        {
            "doubleSided" : true,
            "name" : "Material.003",
            "pbrMetallicRoughness" : {
                "baseColorFactor" : [
                    0.8000000715255737,
                    0.7760767936706543,
                    0.7760767936706543,
                    1
                ],
                "metallicFactor" : 0,
                "roughnessFactor" : 0.5
            }
        },
        {
            "doubleSided" : true,
            "name" : "Material.004",
            "pbrMetallicRoughness" : {
                "baseColorFactor" : [
                    0.800000011920929,
                    0.800000011920929,
                    0.800000011920929,
                    1
                ],
                "metallicFactor" : 0,
                "roughnessFactor" : 0.5
            }
        }
    ],
    "meshes" : [
        {
            "name" : "Cube",
            "primitives" : [
                {
                    "attributes" : {
                        "POSITION" : 0,
                        "TEXCOORD_0" : 1,
                        "NORMAL" : 2
                    },
                    "indices" : 3,
                    "material" : 0
                }
            ]
        },
        {
            "name" : "Curve.010",
            "primitives" : [
                {
                    "attributes" : {
                        "POSITION" : 4,
                        "NORMAL" : 5
                    },
                    "indices" : 6,
                    "material" : 1
                }
            ]
        },
        {
            "name" : "Curve.011",
            "primitives" : [
                {
                    "attributes" : {
                        "POSITION" : 7,
                        "NORMAL" : 8
                    },
                    "indices" : 9,
                    "material" : 2
                }
            ]
        }
    ],
    "accessors" : [
        {
            "bufferView" : 0,
            "componentType" : 5126,
            "count" : 13264,
            "max" : [
                1.0000001192092896,
                1.0000001192092896,
                1.0000001192092896
            ],
            "min" : [
                -1.0000001192092896,
                -1.0000001192092896,
                -1.0000001192092896
            ],
            "type" : "VEC3"
        },
        {
            "bufferView" : 1,
            "componentType" : 5126,
            "count" : 13264,
            "type" : "VEC2"
        },
        {
            "bufferView" : 2,
            "componentType" : 5126,
            "count" : 13264,
            "type" : "VEC3"
        },
        {
            "bufferView" : 3,
            "componentType" : 5123,
            "count" : 19968,
            "type" : "SCALAR"
        },
        {
            "bufferView" : 4,
            "componentType" : 5126,
            "count" : 14452,
            "max" : [
                0.08466058224439621,
                0.0099998340010643,
                0.07834003120660782
            ],
            "min" : [
                -0.08464852720499039,
                -7.450580596923828e-09,
                -0.07215771824121475
            ],
            "type" : "VEC3"
        },
        {
            "bufferView" : 5,
            "componentType" : 5126,
            "count" : 14452,
            "type" : "VEC3"
        },
        {
            "bufferView" : 6,
            "componentType" : 5123,
            "count" : 24192,
            "type" : "SCALAR"
        },
        {
            "bufferView" : 7,
            "componentType" : 5126,
            "count" : 86112,
            "max" : [
                0.01574465073645115,
                -1.4901161193847656e-08,
                0.015741346403956413
            ],
            "min" : [
                -0.015744667500257492,
                -0.0100000174716115,
                -0.015741297975182533
            ],
            "type" : "VEC3"
        },
        {
            "bufferView" : 8,
            "componentType" : 5126,
            "count" : 86112,
            "type" : "VEC3"
        },
        {
            "bufferView" : 9,
            "componentType" : 5125,
            "count" : 226980,
            "type" : "SCALAR"
        }
    ],
    "bufferViews" : [
        {
            "buffer" : 0,
            "byteLength" : 159168,
            "byteOffset" : 0,
            "target" : 34962
        },
        {
            "buffer" : 0,
            "byteLength" : 106112,
            "byteOffset" : 159168,
            "target" : 34962
        },
        {
            "buffer" : 0,
            "byteLength" : 159168,
            "byteOffset" : 265280,
            "target" : 34962
        },
        {
            "buffer" : 0,
            "byteLength" : 39936,
            "byteOffset" : 424448,
            "target" : 34963
        },
        {
            "buffer" : 0,
            "byteLength" : 173424,
            "byteOffset" : 464384,
            "target" : 34962
        },
        {
            "buffer" : 0,
            "byteLength" : 173424,
            "byteOffset" : 637808,
            "target" : 34962
        },
        {
            "buffer" : 0,
            "byteLength" : 48384,
            "byteOffset" : 811232,
            "target" : 34963
        },
        {
            "buffer" : 0,
            "byteLength" : 1033344,
            "byteOffset" : 859616,
            "target" : 34962
        },
        {
            "buffer" : 0,
            "byteLength" : 1033344,
            "byteOffset" : 1892960,
            "target" : 34962
        },
        {
            "buffer" : 0,
            "byteLength" : 907920,
            "byteOffset" : 2926304,
            "target" : 34963
        }
    ],
    "buffers" : [
        {
            "byteLength" : 3834224,
            "uri" : "react.bin"
        }
    ]
}
