<?xml version="1.0" encoding="UTF-8" standalone="no"?>
<!-- Created with Inkscape (http://www.inkscape.org/) -->

<svg
   width="658.72363mm"
   height="226.99474mm"
   viewBox="0 0 658.72363 226.99474"
   version="1.1"
   id="svg1"
   xml:space="preserve"
   xmlns:inkscape="http://www.inkscape.org/namespaces/inkscape"
   xmlns:sodipodi="http://sodipodi.sourceforge.net/DTD/sodipodi-0.dtd"
   xmlns="http://www.w3.org/2000/svg"
   xmlns:svg="http://www.w3.org/2000/svg"><sodipodi:namedview
     id="namedview1"
     pagecolor="#505050"
     bordercolor="#ffffff"
     borderopacity="1"
     inkscape:showpageshadow="0"
     inkscape:pageopacity="0"
     inkscape:pagecheckerboard="1"
     inkscape:deskcolor="#505050"
     inkscape:document-units="mm" /><defs
     id="defs1" /><g
     inkscape:label="Capa 1"
     inkscape:groupmode="layer"
     id="layer1"
     transform="translate(224.33416,-35.002627)"><g
       transform="matrix(0.26458,0,0,0.26458,-292.17018,-32.958223)"
       id="g36"><g
         fill="#7c7f85"
         id="g7"><path
           d="m 2076.6,1059.8 c -0.01,0.5138 -0.012,1.0276 -0.5173,1.9749 -2.9951,7.13 -5.4902,13.827 -7.9854,20.523 0,0 -0.072,0.4114 -0.5441,0.6128 -4.9622,5.2171 -8.9956,10.761 -14.048,15.125 -7.6701,6.6257 -16.906,10.585 -26.971,12.21 -10.532,1.7006 -21.062,3.7008 -31.674,4.5028 -5.548,0.4194 -11.259,-1.5349 -16.915,-2.2666 -5.2753,-0.6821 -10.576,-1.1642 -15.866,-1.7343 -0.5027,-0.049 -1.0055,-0.097 -1.9165,-0.6604 -6.3902,-3.0279 -12.372,-5.5416 -18.354,-8.0551 -0.1674,-0.058 -0.3346,-0.1156 -0.7572,-0.6636 -5.705,-4.0737 -8.1636,-9.049 -7.0366,-15.548 0.4676,-2.6976 1.2669,-5.3379 1.9155,-8.0041 0.2897,-0.4977 0.5792,-0.9955 1.4096,-1.7384 1.9023,-2.2116 3.2635,-4.1781 4.6249,-6.1446 0,0 0.02,0.037 0.3762,0.039 2.1922,0.641 4.0279,1.2808 5.8634,1.9206 0.1624,0.072 0.3249,0.143 0.7136,0.6831 0.9912,0.8182 1.7563,1.1682 2.5216,1.5181 1.0411,0.6137 2.0822,1.2273 3.4378,2.4244 6.5792,3.5405 12.733,6.7763 19.158,9.3308 2.9859,1.1871 6.4978,1.0504 9.7713,1.5139 0.5206,-0.014 1.0414,-0.029 2.0261,0.4318 7.1705,3.5081 14.042,2.4311 20.897,1.2157 0.4571,-0.081 0.7774,-0.9334 1.1613,-1.4271 0.499,-0.1297 0.998,-0.2595 2.1888,-0.108 6.3114,1.4547 10.81,-1.5422 15.407,-3.8753 2.0555,-1.0431 3.7332,-2.8307 5.5825,-4.2804 0.2715,-0.3323 0.5429,-0.6646 1.4419,-1.1653 1.3713,-0.4842 2.3242,-0.6045 2.8283,-1.1443 10.759,-11.515 15.726,-25.047 14.05,-40.851 -0.033,-1.8158 -0.067,-3.6316 0.3938,-6.0045 0.7215,-3.615 1.0884,-6.6731 1.0808,-9.7301 0,-0.7934 -1.4226,-2.3466 -1.7644,-2.2356 -1.1125,0.3616 -2.0272,1.3316 -3.018,2.0674 -0.4497,0.559 -0.8994,1.1179 -1.9861,1.7349 -2.7913,1.854 -4.9455,3.65 -7.0996,5.4459 -0.7244,0.5189 -1.4486,1.0377 -2.9085,1.5898 -2.6153,0.6152 -4.6339,0.9302 -6.353,1.822 -12.34,6.402 -25.618,5.4651 -38.774,4.8178 -3.987,-0.1961 -7.9805,-1.6935 -11.825,-3.0177 -5.8417,-2.0119 -11.556,-4.3927 -17.325,-6.617 -0.1665,-0.059 -0.3331,-0.1185 -0.7308,-0.6815 -3.7701,-3.8807 -7.4588,-7.1172 -10.803,-10.677 -2.8546,-3.0387 -5.3139,-6.4489 -7.9479,-9.6947 0,0 -0.3403,-0.3129 -0.3871,-0.9278 -2.0874,-6.4912 -4.0777,-12.386 -6.2313,-18.221 -0.2772,-0.75085 -1.4019,-1.1889 -2.1339,-1.7719 -0.1528,-0.48022 -0.3058,-0.96051 -0.168,-2.0983 0.3244,-1.8051 0.4859,-2.9658 0.3705,-4.0983 -0.9017,-8.8541 -2.3485,-17.686 -2.6552,-26.558 -0.3029,-8.7594 -0.2893,-17.689 1.0894,-26.304 1.4659,-9.1608 4.1039,-18.26 7.3452,-26.971 2.6099,-7.0133 6.8814,-13.408 10.416,-20.078 0,0 0.01,0.0193 0.3333,-0.0275 0.7443,-0.72986 1.1655,-1.413 1.5868,-2.0961 0,0 0.039,0.0931 0.3392,0.0627 0.7541,-0.70782 1.2082,-1.3852 1.6623,-2.0626 0,-6e-5 0.039,0.0918 0.3389,0.062 0.7525,-0.70892 1.2045,-1.388 1.6565,-2.0671 -10e-5,-6e-5 0.039,0.0931 0.3362,0.066 0.7653,-0.69018 1.2334,-1.3533 1.7017,-2.0165 -10e-5,0 0.037,0.08 0.3579,0.0476 2.0111,-1.0565 3.7391,-2.0241 5.3863,-3.114 10.815,-7.155 22.452,-11.511 35.663,-10.867 4.151,0.2024 8.3204,0.057 12.481,0.0261 7.8987,-0.0588 15.334,1.7282 22.301,5.4669 4.0345,2.1652 8.0869,4.2977 12.131,6.4448 0,0 0.4589,0.18988 0.6644,0.69794 4.4602,5.4751 5.1731,5.355 7.5528,-0.4292 0.6814,-1.6564 1.7497,-3.1534 2.6408,-4.7234 0,0 0.079,-0.28198 0.5386,-0.41541 3.4812,-1.4623 6.3926,-3.4043 9.5508,-3.9708 4.3132,-0.77387 8.8506,-0.80255 13.188,-0.28473 0.5271,0.0629 0.4262,5.4829 0.5918,8.4215 0.047,0.82965 0.01,1.6642 0.01,2.4966 0,51.105 0.156,102.21 -0.1316,153.31 -0.057,10.163 -1.8762,20.311 -2.7358,30.478 -0.1763,2.0842 0.3047,4.224 0.4826,6.3381 m -27.667,-124.33 c 8e-4,-10.663 0.1507,-21.329 -0.1208,-31.984 -0.056,-2.2017 -1.1817,-4.8072 -2.6629,-6.4712 -9.331,-10.482 -22.248,-13.797 -35.249,-15.644 -6.4485,-0.91608 -13.88,0.0284 -19.895,2.498 -6.4177,2.6349 -12.526,7.2883 -17.283,12.435 -9.2188,9.9745 -11.924,23.091 -12.449,36.061 -0.5278,13.035 0.341,26.245 1.9462,39.212 1.5204,12.282 7.3966,22.959 17.314,30.791 7.6581,6.0488 17.272,7.6916 26.417,8.0647 9.7702,0.3986 19.13,-3.1378 28.313,-7.2704 10.863,-4.8885 14.043,-12.747 13.759,-23.711 -0.3701,-14.318 -0.09,-28.653 -0.09,-43.981 z"
           id="path1" /><path
           d="m 1872.3,865.62 c 13.248,10.191 20.902,23.416 24.941,39.15 2.7606,10.754 5.0742,21.505 4.3888,32.644 -0.239,3.884 -0.9271,7.8885 -2.3299,11.479 -0.5472,1.4009 -3.6202,2.5516 -5.5509,2.5641 -25.659,0.16656 -51.319,0.11114 -76.979,0.10956 -9.4975,-6.1e-4 -18.995,-0.005 -28.492,-0.008 -1.6093,-4.2e-4 -3.2184,-6e-5 -5.4917,-6e-5 0.8145,6.6738 0.672,12.89 2.4547,18.494 3.1927,10.036 5.9662,20.607 15.488,27.17 4.5145,3.1113 8.7485,6.7302 13.555,9.2777 2.726,1.4447 6.3652,1.1256 9.5725,1.7134 3.5178,0.6446 7.0523,2.1688 10.508,1.9829 7.5854,-0.4082 15.264,-0.703 22.471,-3.8151 4.6604,-2.0126 9.8759,-2.9745 14.174,-5.5314 5.4033,-3.2144 10.123,-7.5772 15.509,-11.73 3.3118,5.457 7.27,11.417 10.539,17.734 0.8942,1.7279 0.4563,4.9771 -0.6314,6.7579 -5.3675,8.7867 -12.857,14.892 -23.07,17.68 -5.9157,1.6148 -11.486,4.463 -17.355,6.2985 -2.0388,0.6377 -4.545,-0.4113 -6.7727,-0.145 -4.379,0.5239 -8.7157,2.0397 -13.064,2.0174 -4.9998,-0.026 -9.9862,-1.3257 -14.991,-1.974 -5.034,-0.6518 -10.401,-0.2997 -15.054,-1.9703 -7.2995,-2.6209 -14.027,-6.7882 -21.173,-9.8969 -7.1257,-3.1003 -11.518,-9.0626 -16.323,-14.601 -7.5211,-8.6698 -12.04,-18.959 -15.357,-29.814 -1.6972,-5.5536 -3.4798,-11.114 -4.6118,-16.794 -0.5568,-2.793 0.4827,-5.8659 0.4481,-8.808 -0.1193,-10.099 -2.048,-20.512 -0.1928,-30.213 2.3428,-12.25 5.5852,-24.861 13.118,-35.294 5.6678,-7.8501 11.864,-15.54 18.973,-22.048 4.5615,-4.1758 11.142,-6.2115 16.94,-8.9479 3.9368,-1.8581 7.9598,-3.962 12.167,-4.721 6.8748,-1.2401 13.926,-1.8812 20.913,-1.9771 4.1451,-0.0569 8.331,2.1378 12.463,2.0248 5.6581,-0.15455 10.63,1.7555 15.54,3.745 4.5762,1.8541 8.7436,4.7175 13.275,7.4476 m -75.211,25.932 c -8.4909,8.6183 -12.986,19.022 -14.212,31.014 -0.3718,3.6362 0.8339,4.6031 4.333,4.5876 25.482,-0.11255 50.964,-0.0451 76.446,-0.0778 4.6821,-0.006 5.6405,-1.8231 3.6685,-6.3087 -0.5763,-1.3113 -1.3371,-2.9002 -1.0705,-4.1626 1.2849,-6.0823 -1.1155,-11.436 -3.3202,-16.667 -2.8012,-6.6468 -7.9417,-11.406 -14.414,-14.583 -1.9117,-0.93835 -4.0078,-1.5952 -6.0899,-2.0743 -5.162,-1.1879 -10.916,-4.0858 -15.404,-2.7761 -4.9802,1.4532 -10.003,-0.52179 -15.3,2.596 -4.5083,2.6537 -9.751,4.6218 -14.636,8.4528 z"
           id="path2" /><path
           d="m 2537.7,855.25 c 2.8731,1.2172 5.4966,2.2181 8.1826,3.0058 9.4856,2.7816 17.484,8.4753 24.378,14.967 9.0095,8.4845 14.973,19.403 18.78,31.342 1.3471,4.226 3.6682,8.2481 4.355,12.553 1.0317,6.4646 1.0739,13.093 1.4284,19.658 0.3479,6.4403 0.6648,12.886 0.7698,19.334 0.034,2.0649 -0.5652,4.1615 -1.0356,6.2066 -0.4058,1.7634 -1.2967,3.4403 -1.5323,5.2139 -1.9927,15.004 -7.667,28.43 -16.066,41.023 -7.7132,11.566 -18.656,18.905 -30.715,24.457 -7.1621,3.2973 -15.14,5.2612 -23.459,4.8228 -3.4749,-0.1831 -7.0418,1.7109 -10.545,1.6355 -4.1758,-0.09 -8.3147,-1.3748 -12.494,-1.9687 -4.6797,-0.6648 -9.5015,-0.6801 -14.048,-1.825 -4.1341,-1.0408 -7.9839,-3.2127 -11.956,-4.8944 -10.26,-4.3443 -17.499,-12.556 -24.473,-20.593 -4.4216,-5.0954 -6.9975,-11.924 -9.811,-18.239 -1.9615,-4.4019 -2.3716,-9.5181 -4.4754,-13.827 -2.3288,-4.7688 -1.1865,-10.008 -2.7861,-14.514 -2.6211,-7.384 -1.8015,-14.763 -1.8171,-22.151 -0.01,-3.8488 1.0539,-7.7252 1.8491,-11.544 1.008,-4.8425 0.948,-9.7411 2.6472,-14.633 3.1912,-9.1877 5.4451,-18.766 11.576,-26.528 5.6164,-7.1111 11.536,-14.062 18,-20.391 3.3003,-3.2311 7.9516,-5.2302 12.239,-7.2677 5.2901,-2.5143 10.697,-5.8394 16.301,-6.4181 11.866,-1.2255 23.82,-5.4855 35.906,-0.48261 2.5296,1.0472 5.7039,0.53705 8.802,1.0588 m -70.545,113.87 c 0.6352,2.3994 1.1923,4.8228 1.9201,7.1938 2.7202,8.8663 7.4312,16.578 14.018,23.062 6.7873,6.68101 15.621,8.95541 24.58,10.83801 7.7019,1.6186 14.584,-1.482 21.871,-3.1068 7.5217,-1.6771 12.656,-5.9777 17.297,-11.08001 5.4802,-6.026 9.1516,-13.125 10.122,-21.596 0.8276,-7.2289 3.0532,-14.294 3.9478,-21.52 0.4968,-4.016 -0.5938,-8.2082 -0.7342,-12.329 -0.145,-4.259 0.3933,-8.5744 -0.099,-12.78 -0.5528,-4.7272 -1.7745,-9.397 -2.9693,-14.024 -2.4216,-9.3755 -7.0056,-17.397 -14.653,-23.64 -7.5518,-6.1658 -16.598,-7.8276 -25.766,-8.9543 -5.1924,-0.63818 -10.298,1.56 -15.275,2.1426 -8.6596,1.0138 -14.485,5.6348 -20.243,10.817 -8.6746,7.8076 -11.447,18.721 -14.141,29.497 -3.7158,14.858 -1.7019,29.758 0.1243,45.479 z"
           id="path3" /><path
           d="m 2131.9,854.15 c 8.273,0.12024 16.318,1.8273 21.218,8.8541 3.2095,4.6025 6.156,10.554 6.2646,15.961 0.6309,31.307 0.3411,62.632 0.471,93.95 0.025,5.962 -0.085,12.037 1.0007,17.849 0.9849,5.2722 3.635,9.882 8.9082,12.885 8.5442,4.866 17.905,5.8002 27.268,6.5465 3.5828,0.2855 7.3147,-1.3075 11.496,-1.6365 4.7178,1.8075 7.7488,-0.1689 10.47,-3.0405 0.6816,-0.198 1.363,-0.3959 2.7544,-0.6143 2.6301,-1.4043 4.5505,-2.788 6.4709,-4.1716 0.6707,-0.537 1.3416,-1.074 2.6553,-1.7782 2.4355,-2.1383 4.2283,-4.1094 6.021,-6.0805 0.4236,-0.71777 0.8474,-1.4356 1.7624,-2.5704 1.1397,-2.9032 2.3455,-5.3878 2.3528,-7.876 0.1175,-39.639 0.081,-79.278 0.081,-118.92 3e-4,-6.5599 0.041,-6.1372 6.6929,-6.6871 6.8953,-0.57019 12.487,2.5291 18.384,5.0154 0.2686,0.15918 0.4961,0.36419 0.8614,1.1803 1.4375,4.6439 3.77,8.7168 3.7915,12.802 0.2651,50.435 0.1692,100.87 0.2632,151.31 0.01,3.1753 -1.2166,4.0151 -4.1307,3.9264 -5.1555,-0.1573 -10.319,-0.047 -15.479,-0.047 -9.6655,-8e-4 -9.6655,-4e-4 -10.749,-9.2662 -0.01,-0.6128 -0.012,-1.2255 0.07,-2.4512 -0.2256,-1.0476 -0.5396,-1.4822 -0.8533,-1.9169 -0.3733,0.4135 -0.7463,0.827 -1.1194,1.2405 -1.6823,1.4298 -3.3645,2.8595 -5.706,4.4455 -3.5606,2.1919 -6.4617,4.2275 -9.3631,6.263 -0.166,0.092 -0.3322,0.1836 -1.1184,0.4354 -10.88,2.4894 -21.035,5.7556 -31.426,6.9229 -14.643,1.6446 -28.959,-0.9871 -42.346,-7.587 -0.5042,-0.2357 -1.0081,-0.4715 -1.805,-1.24 -3.289,-3.2598 -6.2856,-5.987 -9.2819,-8.7141 -0.5811,-0.7876 -1.1622,-1.5752 -1.8477,-2.9399 -0.6277,-1.1625 -1.1506,-1.7479 -1.6736,-2.3333 -0.1833,-0.3144 -0.3664,-0.6289 -0.5408,-1.5772 -1.385,-3.5869 -2.7785,-6.5399 -4.1721,-9.4929 -0.1235,-0.3982 -0.247,-0.7964 -0.157,-1.7729 0,-3.1454 0.06,-5.7821 -0.5485,-8.253 -0.3489,-1.4164 -1.7908,-2.5637 -2.7408,-3.8321 0.2417,-2.714 0.4834,-5.428 0.7791,-9.0121 0.055,-37.417 0.039,-73.964 0.078,-110.51 0.01,-5.58 -1.6773,-11.793 4.946,-15.266 z"
           id="path4" /><path
           d="m 1629.4,1005.5 c 8.293,1.8069 15.561,7.2617 24.499,4.7649 2.3897,-0.6676 5.2315,0.276 7.8647,0.4944 0.3275,0.027 0.6878,0.2794 0.9655,0.1979 5.5555,-1.6303 11.345,-2.7506 16.581,-5.1027 5.3534,-2.4053 9.3008,-6.8185 10.773,-12.78 3.7582,-15.212 -1.3714,-23.115 -12.953,-29.439 -4.6766,-2.5533 -9.7272,-4.5333 -14.791,-6.2246 -3.1855,-1.0639 -6.7281,-1.0186 -10.081,-1.6326 -3.7047,-0.67823 -7.4747,-1.238 -11.036,-2.4022 -4.2393,-1.386 -8.2299,-3.515 -12.429,-5.046 -7.8518,-2.8626 -13.908,-8.1536 -19.678,-13.928 -5.5549,-5.5591 -8.6842,-12.293 -10.265,-19.91 -0.5294,-2.5518 -2.257,-4.9566 -2.3702,-7.4764 -0.6279,-13.96 5.3602,-25.806 13.732,-36.166 3.5553,-4.3993 9.5535,-7.05 14.811,-9.7841 5.2126,-2.7103 10.745,-5.8286 16.395,-6.4594 11.391,-1.2718 22.911,-5.3525 34.484,-0.53467 1.42,0.59125 3.2086,0.34436 4.8292,0.39087 1.1434,0.0328 2.4228,-0.45562 3.4164,-0.0934 6.8015,2.4794 13.995,4.3462 20.171,7.942 5.5855,3.2522 10.495,8.057 14.748,12.999 1.5293,1.7775 1.1311,6.2775 0.1076,8.9609 -1.9849,5.203 -5.036,9.9992 -7.8427,15.339 -2.9254,0.0571 -5.4051,-0.5929 -8.1921,-3.3005 -6.3639,-6.1823 -13.638,-11.262 -22.885,-12.735 -5.4318,-0.86505 -10.728,-2.5536 -16.127,-3.6668 -1.3769,-0.28375 -2.9278,0.13336 -4.3756,0.36988 -2.562,0.41857 -5.0871,1.1479 -7.6613,1.3914 -9.7651,0.92346 -19.405,5.5285 -21.971,14.216 -3.0494,10.321 1.4522,18.932 11.808,22.432 4.5072,1.5231 8.6543,4.0819 13.086,5.8718 2.4108,0.97381 5.0753,1.3178 7.6235,1.9537 5.3563,1.3365 10.827,2.3356 16.04,4.0973 7.9659,2.6923 15.693,5.7274 23.114,10.089 11.569,6.8 16.902,17.678 21.409,29.013 1.8083,4.5476 0.2541,10.424 0.2664,15.696 0.035,15.20602 -6.9618,26.92702 -18.073,36.63602 -6.529,5.705 -13.983,9.3264 -22.243,12.218 -13.127,4.5955 -26.4,3.799 -39.75,3.4001 -5.8306,-0.1744 -11.772,-0.5265 -17.418,-1.8484 -4.9921,-1.1688 -9.6673,-3.739 -14.433,-5.8044 -2.1255,-0.9211 -4.05,-2.3301 -6.2041,-3.1571 -6.9109,-2.6532 -8.4875,-8.1504 -8.1192,-14.731 0.2451,-4.3818 6.5799,-16.27602 9.2669,-18.57002 7.8371,4.1584 15.258,8.09612 22.907,12.32002 z"
           id="path5" /><path
           d="m 2623.8,1000.8 c 0,0 0.1619,-0.371 0.6018,-0.6155 1.5574,-2.3778 2.6751,-4.5111 3.7925,-6.6444 1.0649,0.40967 2.1296,0.81934 3.5019,1.7587 2.534,1.971 4.7605,3.4124 6.9869,4.8537 0,0 0.093,0.029 0.2011,0.3915 4.9217,2.7751 9.6548,5.3738 14.588,7.5079 1.9368,0.8378 4.3232,0.6358 6.6836,1.2345 0.8582,0.7654 1.4841,1.4316 2.2261,1.6069 9.2939,2.1978 18.704,3.0435 28.026,0.6139 6.2737,-1.6351 12.939,-3.023 16.632,-9.4129 0,0 -0.054,-0.074 0.3291,-0.1077 6.2624,-5.4847 9.1242,-19.505 5.6579,-26.278 -3.6818,-7.1934 -9.164,-12.753 -16.716,-15.546 -7.0403,-2.6041 -14.354,-4.6021 -21.684,-6.2626 -13.152,-2.9794 -25.718,-7.3526 -37.443,-14.052 0,0 -0.076,-0.0217 -0.1407,-0.35572 -0.8881,-0.81213 -1.7121,-1.2903 -2.5358,-1.7685 0,0 -0.1907,-0.1087 -0.3316,-0.44208 -0.6694,-0.73004 -1.198,-1.1268 -1.7263,-1.5235 0,0 -0.166,-0.0936 -0.2962,-0.47393 -1.104,-1.3793 -2.0776,-2.3782 -3.0515,-3.3771 0,6e-5 -0.2006,-0.31824 -0.2934,-0.86059 -8.6753,-14.561 -10.275,-29.342 -4.8069,-44.836 1.0278,-2.9119 2.4375,-5.6889 3.6709,-8.5282 0.2021,-0.33466 0.404,-0.66937 1.0708,-1.3477 9.0842,-9.8689 19.949,-16.153 32.181,-18.912 20.412,-4.6045 40.819,-3.7526 60.508,4.2258 4.3757,1.7732 8.5603,4.019 12.833,6.0472 0,0 0.3255,0.19708 0.5103,0.64728 1.1492,1.2017 2.1138,1.9533 3.0784,2.7048 0,0 0.2561,0.27106 0.2885,0.83466 3.6558,7.7028 0.647,14.116 -2.2949,20.447 -2.9402,6.3276 -4.1592,6.6889 -9.9966,3.7631 0,0 0.1094,-0.10815 0.051,-0.39648 -0.7556,-0.70337 -1.4526,-1.1184 -2.1494,-1.5334 -0.4251,-0.33716 -0.8501,-0.67431 -1.5581,-1.506 -16.233,-13.603 -34.4,-16.991 -54.065,-11.927 -4.0896,1.053 -7.5188,4.6718 -11.252,7.1082 -0.2344,0.23871 -0.4685,0.47742 -1.196,0.94068 -0.9744,1.0897 -1.4554,1.9548 -1.9366,2.82 0,0 -0.046,0.12976 -0.4279,0.28351 -6.4588,9.6854 -2.5164,22.979 7.364,26.273 0,0 0.094,0.0289 0.2077,0.39673 8.3111,3.3649 16.486,6.4247 24.71,9.3437 11.365,4.0335 22.888,7.6584 34.096,12.083 4.4712,1.7649 8.2851,5.1948 12.398,7.8668 0,0 -0.1323,0.13495 -0.068,0.40985 0.7326,0.71313 1.4011,1.1514 2.0693,1.5897 0,0 -0.1338,0.13782 -0.078,0.43225 1.1291,1.9514 2.488,3.4909 3.2248,5.2857 3.002,7.31 6.3438,14.55 8.4605,22.123 0.9882,3.5344 -0.1329,7.861 -1.0066,11.666 -1.2796,5.5717 -3.1963,10.99704 -4.8416,16.48504 0,0 0.031,0.065 -0.3318,0.1387 -1.707,2.4632 -3.051,4.8531 -4.395,7.2431 -0.4836,0.6944 -0.9675,1.3888 -1.9009,2.3988 -0.8005,0.8216 -1.1516,1.3275 -1.5027,1.8334 0,0 -0.1103,0.1839 -0.5058,0.3352 -7.4458,4.3866 -14.18,9.3139 -21.614,12.71 -14.613,6.6767 -30.416,6.4353 -45.977,5.3403 -12.418,-0.8736 -24.477,-4.047 -35.543,-10.195 -6.9966,-3.8871 -9.0686,-8.3502 -7.0759,-15.998 0.7785,-2.987 1.853,-5.897 2.7927,-8.8422 z"
           id="path6" /><path
           d="m 2377.2,885.07 c -0.4898,0.0342 -0.9795,0.0684 -2.1853,0.0817 -4.854,2.1391 -8.9924,4.2991 -13.131,6.4592 0,-6e-5 -0.1516,0.0576 -0.4573,0.17627 -0.7478,0.62366 -1.1899,1.1285 -1.6321,1.6333 0,0 -0.1975,0.12659 -0.5017,0.297 -0.706,0.67602 -1.1084,1.1817 -1.5107,1.6874 0,-7e-5 -0.1953,0.14233 -0.4995,0.33673 -0.6797,0.74829 -1.0555,1.3022 -1.4312,1.8561 0,-6e-5 -0.1257,0.10046 -0.4536,0.30487 -1.6699,4.359 -4.1455,8.5047 -4.178,12.669 -0.2998,38.284 -0.166,76.572 -0.208,114.86003 0,1.9458 -0.4597,3.8911 -1.186,5.7693 -7.8015,-0.1087 -15.122,-0.1625 -22.443,-0.187 -6.3474,-0.021 -6.3459,-0.01 -6.3459,-6.5928 0,-52.75103 2e-4,-105.50003 0,-158.25003 -2e-4,-7.9908 -0.01,-7.9704 8.1975,-8.3093 0.9375,-0.0387 1.8594,-0.46308 2.7883,-0.70862 0.4214,0.0494 0.8428,0.0987 1.6924,0.5556 2.5987,1.1071 4.7693,1.8066 6.94,2.5062 0.1941,0.10369 0.3884,0.20733 0.9814,0.68695 0.9412,0.68719 1.4832,0.99859 2.0252,1.3099 0,0 0.1237,0.0507 0.2209,0.4054 0.8328,1.0011 1.5684,1.6475 2.3042,2.2939 0.9917,2.0515 1.9836,4.103 2.9795,6.8739 1.2546,0.88641 3.0857,1.6628 3.6575,1.1178 2.9184,-2.7815 5.5112,-5.9042 8.218,-8.9076 0.4118,-0.33996 0.8237,-0.67981 1.8313,-1.1146 1.155,-0.75885 1.7146,-1.4228 2.5725,-2.0914 1.1807,-0.70325 2.063,-1.4018 2.9455,-2.1004 0.1773,-0.0629 0.3545,-0.12585 1.1263,-0.40161 12.488,-4.4218 24.505,-5.123 36.632,-1.3323 8.1941,2.5615 11.809,8.656 9.563,16.907 -1.5535,5.707 -3.8645,11.208 -5.8369,16.801 -0.097,0.15729 -0.1946,0.31451 -0.636,0.87415 -2.0308,-0.1446 -3.9531,-0.3426 -5.3655,-1.2961 -8.1909,-5.5311 -16.834,-8.3238 -26.673,-5.1661 z"
           id="path7" /></g><g
         fill="#04a7de"
         id="g15"><path
           d="m 2033.7,338.46 c -0.2751,0.57755 -0.5504,1.1551 -1.2743,2.1456 -1.3175,2.8343 -2.1865,5.2556 -3.0557,7.677 -0.192,0.99918 -0.384,1.9983 -0.9616,3.5413 -0.5678,1.8668 -0.7498,3.1898 -0.9318,4.5129 -0.042,0.36972 -0.083,0.73947 -0.4624,1.5703 -0.328,1.996 -0.3188,3.5309 -0.3097,5.0658 -0.037,1.4101 -0.075,2.8202 -0.4592,4.8734 -0.6369,6.5745 -1.0779,12.503 -1.1807,18.438 -0.1506,8.6812 -0.047,8.6973 8.5319,8.6982 49.97,0.005 99.94,0.0129 149.91,-0.0194 3.1697,-0.002 5.6155,-0.3023 5.6086,4.4573 -0.124,86.947 -0.083,173.89 0.01,260.84 0,3.4409 -1.1504,4.5948 -4.5701,4.8217 -5.8652,0.38879 -11.692,1.3589 -17.535,2.0849 -1.3857,0.008 -2.7717,0.0168 -4.8384,-0.29431 -5.1223,-0.69727 -9.5637,-1.075 -14.005,-1.4527 -4.7979,1.7836 -8.321,-1.6234 -11.99,-3.3966 -11.567,-5.5918 -17.88,-15.192 -21.886,-27.416 -1.8877,-5.7604 -1.0076,-10.913 -1.0232,-16.232 -0.1946,-66.647 -0.1055,-133.29 -0.1072,-199.94 -2e-4,-1.5184 -0.2072,-3.0367 -0.3501,-4.9968 -5.1694,7.9052 -9.8767,15.14 -14.639,22.338 -0.5747,0.86862 -1.3083,1.8224 -2.2019,2.2592 -6.3315,3.0944 -12.813,5.8918 -19.07,9.1261 -5.3513,2.766 -10.971,3.6344 -16.884,4.1024 -10.615,0.84 -21.188,2.2036 -32.39,3.4146 0,5.2489 -2e-4,11.045 10e-5,16.841 0,48.819 0.2315,97.641 -0.1549,146.46 -0.096,12.145 -4.3911,23.365 -14.103,31.541 -6.9403,5.8429 -14.559,10.453 -23.828,12.001 -5.2009,0.8686 -10.169,3.5103 -15.362,3.9572 -8.013,0.68951 -16.129,0.18158 -24.514,0.18158 -0.1672,-2.6744 -0.3372,-4.1248 -0.3373,-5.575 0,-97.805 -0.033,-195.61 0.041,-293.42 0.016,-21.177 4.5955,-41.417 15.19,-59.816 6.128,-10.643 15.192,-19.087 25.259,-26.093 6.0928,-4.2401 12.752,-7.75 19.428,-11.037 4.125,-2.031 8.7637,-3.015 13.164,-4.4907 4.2821,-1.436 8.5324,-2.9725 12.846,-4.3039 1.1817,-0.36468 2.5431,-0.12781 3.8195,-0.20767 2.1181,-0.13251 4.265,-0.12351 6.344,-0.49011 3.1631,-0.5578 6.2802,-1.9975 9.414,-1.9884 11.089,0.0319 22.204,1.1048 33.255,0.59729 5.843,-0.26825 11.112,-0.0815 16.791,1.6372 5.4781,1.658 11.588,1.1359 17.38,1.8841 3.0156,0.38959 6.0178,1.2474 8.8918,2.2707 2.8692,1.0214 5.5494,2.5628 8.3501,3.7892 6.1927,2.7114 13.042,4.4782 18.432,8.307 5.0066,3.5564 8.9553,8.9567 12.488,14.145 4.6833,6.8775 2.9487,14.437 0.5046,21.763 -3.5376,10.605 -8.6265,20.365 -15.881,28.921 -0.7197,0.84899 -1.7918,1.3996 -3.2114,2.4763 -5.1272,-9.8983 -15.881,-11.288 -24.185,-16.312 -4.3813,-2.6507 -10.258,-2.8022 -15.434,-4.1757 -4.0596,-1.0771 -8.0752,-2.3196 -12.123,-3.4424 -1.273,-0.35306 -2.5838,-0.7731 -3.8831,-0.79306 -8.718,-0.134 -17.676,-1.472 -26.1,0.0721 -12.48,2.2875 -25.583,4.5245 -34.625,16.197 -0.9236,1.2035 -1.3553,2.0438 -1.7869,2.8841 z"
           id="path8" /><path
           d="m 1231.9,430.04 c 0.545,0.86072 1.09,1.7214 1.7864,3.2207 2.4215,4.7321 4.6918,8.8256 6.962,12.919 0.1917,0.61771 0.3833,1.2354 0.5589,2.5369 2.1104,7.2445 4.2253,13.809 6.369,20.364 0.978,2.9909 2.0132,5.9631 3.0224,8.9438 0.043,0.44211 0.087,0.88422 -0.089,1.9419 0.5477,4.485 1.3145,8.3543 2.0811,12.224 0.059,0.40341 0.1179,0.80682 -0.058,1.8216 -0.027,5.9018 0.26,11.191 0.3711,16.483 0.2229,10.609 0.3499,21.221 0.5162,31.831 -0.035,0.97784 -0.069,1.9557 -0.447,3.5389 -0.318,3.4401 -0.2929,6.2749 -0.268,9.1097 -0.023,0.40162 -0.046,0.80329 -0.4506,1.6737 -0.7252,4.0925 -1.0685,7.7161 -1.4118,11.34 -0.056,0.7063 -0.1116,1.4125 -0.5631,2.6096 -0.7182,2.793 -1.0407,5.0953 -1.3632,7.3976 -0.054,0.40375 -0.1084,0.80743 -0.5664,1.6468 -3.6774,9.5477 -6.883,18.685 -10.255,27.76 -1.4803,3.9835 -3.3005,7.8408 -4.9662,11.755 -0.3703,0.71912 -0.7408,1.4383 -1.5867,2.4946 -0.7706,1.0743 -1.0657,1.8115 -1.3608,2.5487 -0.655,1.0734 -1.3101,2.1468 -2.4856,3.519 -1.168,1.3832 -1.8155,2.4677 -2.4631,3.5522 -1.9824,2.3832 -3.9649,4.7665 -6.5073,7.4277 -2.335,2.2318 -4.11,4.1854 -5.8851,6.1392 -0.9076,0.85541 -1.8153,1.7109 -3.2683,2.7977 -1.2572,0.90613 -1.9687,1.5809 -2.6804,2.2556 0,0 -0.291,0.27515 -0.812,0.32129 -4.1123,2.5339 -7.7036,5.0217 -11.295,7.5095 -1.6112,0.85473 -3.2224,1.7094 -5.5266,2.5702 -4.4263,1.5022 -8.1597,2.9982 -11.815,4.4233 0.078,-0.0709 0.018,0.13104 -0.3643,-0.0211 -5.9621,1.2855 -11.542,2.7231 -17.122,4.1606 -0.4454,0.0237 -0.8907,0.0474 -1.9506,-0.15429 -1.2665,-0.29914 -1.9336,-0.5019 -2.5684,-0.42786 -16.391,1.9108 -32.418,0.50989 -47.942,-5.3106 -4.93,-1.8484 -9.7956,-3.8693 -14.691,-5.8113 -0.7235,-0.36285 -1.4472,-0.72577 -2.5077,-1.5651 -1.0822,-0.76081 -1.8273,-1.0451 -2.5723,-1.3295 0,0 -0.3243,-0.22266 -0.5476,-0.66553 -1.8157,-1.5445 -3.4081,-2.6461 -5.0006,-3.7477 -0.5474,-0.55792 -1.0949,-1.1159 -1.9081,-2.2243 -1.4396,-1.4307 -2.6132,-2.3107 -3.7867,-3.1909 -0.4596,1.4943 -1.3139,2.9868 -1.3201,4.4829 -0.1018,24.642 0.039,49.286 -0.1691,73.926 -0.118,13.96 2.1115,28.24 -4.6008,41.491 -0.7616,1.0146 -1.5232,2.0294 -2.8433,3.3244 -3.9419,2.9174 -7.3254,5.5544 -10.709,8.1915 0,0 0.069,0.0815 -0.365,0.0754 -6.1322,1.6982 -11.742,3.8532 -17.551,4.989 -6.7927,1.3281 -13.747,2.2814 -20.653,2.4415 -6.3102,0.14624 -12.65,-0.98309 -18.977,-1.5503 -0.0298,-10.823 -0.0861,-21.646 -0.0853,-32.469 0.009,-117.07 0.0274,-234.13 0.46235,-351.76 2.37515,-1.3322 4.33115,-2.101 6.28715,-2.8698 0.3605,-0.056 0.721,-0.11193 1.7728,-0.0209 3.2135,-0.31952 5.7358,-0.7861 8.258,-1.2527 5.0021,-0.017 10.0041,-0.0339 15.6001,0.34095 12.19,1.9147 23.467,4.3891 33.252,11.324 0,0 0.085,-0.0771 0.091,0.2923 0.934,1.1704 1.862,1.9712 2.7899,2.7721 0,0 0.056,0.021 0.067,0.32425 0.4974,0.81015 0.9844,1.317 1.4713,1.8238 0.093,0.1514 0.1856,0.30282 0.4166,1.057 0.9148,2.7122 1.5765,4.8794 2.5795,6.8752 0.1698,0.33798 1.808,-0.062 2.7678,-0.12091 2.0811,-1.9622 4.1621,-3.9245 6.8538,-6.0693 2.8289,-2.0452 5.0472,-3.9078 7.2653,-5.7703 0,-3e-5 0.011,-0.0688 0.3916,-0.11591 8.2747,-4.075 15.951,-8.6403 24.132,-11.959 6.4407,-2.6126 13.505,-3.6883 20.292,-5.4466 0.3748,-0.0378 0.7497,-0.0757 1.8752,0.0289 8.1571,0.18384 15.5641,0.21622 22.9701,0.27081 3.0452,0.0225 6.0899,0.0928 9.135,0.14136 0.442,0.0448 0.884,0.0896 1.7563,0.53546 3.0897,1.1555 5.7962,1.7748 8.3992,2.6899 7.7171,2.7134 15.393,5.5433 23.085,8.3276 0.722,0.35614 1.4438,0.71228 2.4738,1.5754 1.0574,0.79657 1.8067,1.0862 2.5561,1.3757 0,0 0.3238,0.22186 0.5362,0.66458 1.1291,0.89774 2.0459,1.3528 2.9626,1.8078 0.6259,0.45856 1.2518,0.91712 2.0906,1.9316 0.9239,0.93494 1.635,1.3139 2.3462,1.6929 3.2272,3.144 6.4542,6.288 9.8489,10.032 1.9007,2.5554 3.6341,4.5103 5.3675,6.4651 0.228,0.30384 0.4559,0.60767 0.7658,1.4837 0.6457,1.1363 1.2095,1.7004 1.7734,2.2645 m -95.143,18.398 c -4.7793,-0.97666 -9.543,-2.6402 -14.3421,-2.7505 -5.5917,-0.12842 -11.327,2.1106 -16.797,1.5007 -7.7855,-0.86823 -13.6289,2.6147 -18.9359,6.8152 -6.947,5.4991 -10.0731,13.175 -10.029,22.352 0.1793,37.31 0.1152,74.622 -0.01,111.93 -0.011,3.3931 0.9376,5.8379 3.7442,7.5297 2.8097,1.6936 5.6873,3.2768 8.5611,4.8613 3.4076,1.8787 6.7039,4.0696 10.306,5.4535 3.4436,1.3226 7.1899,2.2925 10.854,2.4976 4.9279,0.27575 10.0719,-1.2306 14.823,-0.35095 7.3873,1.3677 13.018,-2.0573 18.705,-5.2567 3.5178,-1.9789 6.3606,-5.2058 9.3796,-8.009 2.6072,-2.421 6.0545,-4.6001 7.3534,-7.6443 4.0193,-9.4193 8.0895,-18.983 10.492,-28.889 4.1781,-17.229 3.9898,-34.892 2.2213,-52.481 -1.6959,-16.869 -4.9552,-33.342 -17.27,-46.109 -5.0554,-5.2412 -10.573,-10.569 -19.057,-11.453 z"
           id="path9" /><path
           d="m 1512,439.84 c 1.8528,7.5092 2.7664,14.97 5.3997,21.765 3.7006,9.5484 1.707,19.241 1.8549,28.745 0.5777,37.157 0.1805,74.328 0.3178,111.49 0.014,3.8513 1.404,7.6795 1.7203,11.554 0.2089,2.5594 -0.8835,5.2637 -0.4943,7.7632 1.9459,12.498 3.4811,25.135 9.8061,36.477 1.6122,2.891 1.2399,4.5246 -2.6423,5.2551 -4.3485,0.81824 -8.458,2.8366 -12.755,4.0333 -1.9281,0.53704 -4.0711,0.24871 -6.0956,0.50342 -5.6949,0.7163 -11.436,2.4358 -17.054,2.0864 -9.7243,-0.60474 -19.708,-2.6805 -27.612,-8.2501 -5.0314,-3.5455 -7.7694,-10.411 -11.351,-15.909 -1.0558,-1.6205 -1.4811,-3.6519 -2.2743,-5.6986 -6.6575,4.7881 -12.868,9.6998 -19.53,13.897 -4.8122,3.0319 -10.222,5.1166 -15.368,7.6177 -2.8262,1.3737 -5.5401,3.1563 -8.5185,3.9938 -3.6162,1.0166 -7.4564,1.2402 -11.203,1.7838 -0.6494,0.0941 -1.3789,-0.0936 -1.9641,0.12989 -10.32,3.9406 -21.102,0.70452 -31.465,2.1271 -5.1122,0.70184 -8.8614,-1.5112 -13.268,-2.0998 -4.1142,-0.5495 -8.4428,-0.38233 -12.312,-1.6466 -4.8088,-1.5709 -9.1564,-4.4954 -13.858,-6.4664 -9.2573,-3.8812 -17.019,-10.42 -22.885,-17.786 -7.6655,-9.6238 -13.685,-20.869 -15.476,-33.646 -0.8345,-5.9533 -2.2069,-11.84 -2.8579,-17.808 -1.5424,-14.137 2.4894,-27.421 8.5183,-39.743 3.7584,-7.6808 9.7774,-14.467 15.676,-20.825 5.1023,-5.501 11.202,-10.208 17.369,-14.541 3.6677,-2.5774 8.327,-3.7364 12.526,-5.5674 6.4736,-2.823 12.812,-6.0216 19.449,-8.3788 3.6822,-1.3077 7.9089,-0.98849 11.796,-1.8359 5.5558,-1.2113 11.024,-2.8229 16.533,-4.2529 0.4771,-0.1239 0.9719,-0.19986 1.4635,-0.24573 4.1554,-0.38818 8.3089,-0.80121 12.469,-1.1368 12.166,-0.98145 24.331,-1.9878 36.506,-2.8556 3.3943,-0.24194 6.8207,-0.0369 11.144,-0.0369 0,-2.7561 0.2145,-6.1862 -0.042,-9.5806 -0.6487,-8.5799 -0.6845,-17.372 -6.3977,-24.636 -4.6965,-5.9718 -11.39,-8.0632 -18.209,-10.913 -9.6723,-4.0424 -19.165,-0.14374 -28.704,-2.0936 -6.1209,-1.2512 -13.022,1.3441 -19.577,2.1797 -4.49,0.57229 -9.0328,0.85019 -13.467,1.7027 -3.0498,0.58634 -5.9828,1.854 -8.916,2.9559 -4.5243,1.6995 -9.0602,3.3892 -13.485,5.3251 -3.7399,1.6361 -7.1759,4.1368 -11.035,5.2769 -3.026,0.89401 -7.3857,1.618 -9.6081,0.12225 -8.79,-5.9163 -13.454,-14.824 -15.269,-25.223 -0.029,-0.16397 -0.036,-0.34561 -0.1147,-0.4849 -5.2257,-9.3011 1.8955,-14.676 7.052,-19.996 6.8195,-7.0353 15.284,-11.713 24.963,-14.291 5.1056,-1.36 9.7413,-4.4203 14.812,-5.9973 3.7317,-1.1607 7.8437,-1.0456 11.752,-1.706 5.3872,-0.9104 10.732,-2.0688 16.114,-3.0138 2.4556,-0.43121 4.9654,-0.54449 7.4345,-0.91018 5.8136,-0.86096 11.592,-2.2268 17.432,-2.5745 7.1844,-0.42764 14.434,-0.30471 21.624,0.11933 4.2056,0.24801 8.3184,1.807 12.529,2.3092 5.5396,0.66086 11.286,0.2012 16.664,1.4376 6.0204,1.3841 11.801,3.9503 17.55,6.3317 4.6739,1.9362 9.1809,4.2901 13.7,6.5804 9.6307,4.8803 16.835,12.4 22.291,21.532 2.7878,4.6655 4.8076,9.7899 7.346,15.052 m -89.978,94.034 c -3.6656,0.30914 -7.337,0.56372 -10.992,0.96606 -0.9043,0.0995 -1.9058,1.1747 -2.6086,0.96198 -8.6118,-2.6064 -15.863,2.3653 -23.141,4.9532 -9.8992,3.5201 -18.124,9.8389 -24.33,19.202 -9.4805,14.302 -6.2896,37.009 4.3531,48.016 5.2176,5.3962 11.598,8.8048 19.741,8.8976 2.137,0.65149 4.254,1.7856 6.4142,1.8752 12.918,0.53576 25.283,-2.1973 36.449,-8.5617 5.5189,-3.1457 9.9955,-8.1205 15.199,-12.549 0,0 0.1503,-0.34906 0.7959,-0.59448 1.2666,-2.6378 3.579,-5.2551 3.6315,-7.9169 0.3617,-18.319 0.3008,-36.648 0.1782,-54.972 -0.01,-1.1975 -1.6821,-3.4339 -2.5315,-3.4103 -6.9479,0.19348 -13.887,0.77051 -20.818,1.3693 -0.5645,0.0488 -1.0404,1.123 -2.3408,1.7634 z"
           id="path10" /><path
           d="m 2723.8,442.26 c 0,-3e-5 0.1548,0.35483 0.2617,0.86798 10.996,20.554 16.636,42.093 18.43,64.728 2.2151,27.956 0.4231,55.548 -8.937,82.168 -3.2766,9.3182 -8.1795,18.065 -12.339,27.072 0,0 -0.2138,0.33593 -0.5986,0.6231 -1.7153,2.3264 -3.0461,4.3656 -4.377,6.4048 -0.3674,0.41156 -0.7351,0.82312 -1.5185,1.5721 -1.2722,1.536 -2.1287,2.7346 -2.9849,3.9331 0,6e-5 -0.015,0.0687 -0.3601,0.17346 -3.4609,3.3635 -6.5766,6.6222 -9.6926,9.8809 -0.4111,0.33941 -0.8225,0.67889 -1.7473,1.2174 -1.3855,1.0835 -2.2569,1.968 -3.1284,2.8524 0,0 0.1513,0.15302 -0.2715,0.17188 -1.428,0.59692 -2.4939,1.0908 -3.429,1.7656 -21.836,15.753 -46.481,22.714 -73.132,23.357 -7.94,0.19159 -15.884,0.23388 -23.826,0.34454 -0.3667,-0.0137 -0.7334,-0.0273 -1.6409,-0.25934 -10.587,-2.2304 -20.786,-3.6919 -30.63,-6.4305 -7.76,-2.1589 -15.082,-5.8908 -22.599,-8.924 0,0 -0.1457,0.14709 -0.1962,-0.25421 -7.3289,-5.5059 -14.607,-10.61 -21.886,-15.715 -1.3274,-1.3978 -2.6548,-2.7956 -4.2417,-4.7577 -2.3767,-2.8397 -4.4941,-5.115 -6.6113,-7.3904 0,0 -0.1719,-0.33197 -0.3052,-0.77563 -0.7007,-0.9787 -1.2683,-1.5137 -1.8359,-2.0488 0,0 -0.1807,0.14368 -0.125,-0.26947 -1.1358,-1.9542 -2.3274,-3.4952 -3.5191,-5.0362 0,0 -0.1577,-0.34082 -0.3115,-0.83727 -3.1309,-6.4314 -6.5532,-12.188 -9.0068,-18.332 -10.114,-25.332 -13.878,-51.639 -12.529,-78.919 0.9721,-19.673 4.8923,-38.525 12.506,-56.581 3.1436,-7.4548 7.2652,-14.497 10.942,-21.727 0,-2e-5 -0.1328,-0.12872 0.2544,-0.13986 1.6968,-2.0577 3.0061,-4.1043 4.3154,-6.1509 0.5027,-0.61801 1.0059,-1.236 1.9292,-2.2336 0.826,-1.0159 1.2317,-1.6522 1.6377,-2.2885 -2e-4,-3e-5 -0.032,-0.0834 0.3269,-0.16217 1.3272,-0.98706 2.3533,-1.8416 3.2549,-2.8118 16.643,-17.91 36.882,-29.509 60.776,-34.738 5.6348,-1.2331 11.243,-2.5884 16.863,-3.8874 0,3e-5 0.4953,0.0298 1.0832,0.12158 13.177,-0.0118 25.765,-0.11533 38.354,-0.21887 0.3518,0.0259 0.7034,0.0518 1.6006,0.29779 1.346,0.41656 2.1362,0.68411 2.9483,0.79864 12.491,1.762 24.8,4.2978 36.23,9.8376 7.2463,3.5123 14.258,7.5091 21.375,11.289 0.4304,0.33521 0.8609,0.67035 1.6021,1.4425 0.9992,0.82568 1.688,1.2143 2.3767,1.603 0,0 0.2473,0.27982 0.5378,0.67295 6.2534,6.4738 12.216,12.554 18.178,18.635 0,3e-5 0.2076,-0.13944 0.147,0.2821 1.2659,2.1836 2.5923,3.9457 3.919,5.7078 0,3e-5 0.1765,0.37256 0.2819,0.83331 0.6197,1.0525 1.1338,1.6443 1.648,2.236 m -57.973,110.02 c 0.3187,-13.63 1.74,-27.346 0.691,-40.87 -1.4842,-19.129 -4.2522,-37.882 -20.319,-52.128 -7.7119,-6.8375 -15.851,-10.921 -25.369,-12.09 -11.565,-1.4198 -22.754,-0.40576 -33.417,6.2668 -6.5015,4.0681 -11.51,9.0354 -15.991,14.763 -9.4639,12.098 -12.205,26.907 -13.821,41.419 -2.4551,22.056 -1.6177,44.205 5.5933,65.597 7.2475,21.5 21.345,35.234 44.689,36.562 8.3311,0.47418 17.228,-0.82715 25.144,-3.4763 8.3587,-2.7969 14.963,-9.3318 20.034,-16.728 7.907,-11.531 11.175,-24.716 12.766,-39.318 z"
           id="path11" /><path
           d="m 2312.3,568.51 c 3.9392,12.75 10.466,23.574 20.82,31.274 5.2124,3.8764 10.949,7.2374 17.955,8.822 7.7651,1.7563 15.326,4.1938 23.375,4.3138 7.8725,0.11731 15.361,-1.7774 22.726,-4.3765 6.1977,-2.1872 12.889,-3.4314 18.552,-6.5581 6.5147,-3.5966 12.411,-8.4957 18.036,-13.443 2.8081,-2.4696 4.1716,-2.0767 5.7121,0.6034 4.5012,7.8315 9.1704,15.585 13.24,23.638 2.1362,4.2269 4.8799,9.2643 4.2756,13.497 -0.9055,6.3406 -3.7788,12.74 -7.143,18.313 -5.6299,9.3262 -16.97,10.943 -25.361,16.659 -3.5459,2.4152 -8.6286,2.5087 -12.941,3.8837 -3.9663,1.2646 -7.8149,2.8935 -11.764,4.2184 -0.8528,0.28625 -1.9231,-0.15747 -2.8738,-0.0647 -2.7583,0.2691 -5.5192,0.56012 -8.2551,0.99396 -2.5564,0.40551 -5.0762,1.4105 -7.6225,1.4485 -10.717,0.16004 -21.438,0.0991 -32.156,0.004 -1.5762,-0.014 -3.1367,-0.71021 -4.7227,-0.98401 -3.0212,-0.52161 -6.0495,-1.0159 -9.0886,-1.4168 -1.1001,-0.14508 -2.2851,0.22223 -3.3532,-0.007 -5.2146,-1.1208 -10.527,-1.9905 -15.568,-3.6639 -5.6843,-1.8873 -11.276,-4.2203 -16.619,-6.93 -7.9231,-4.0182 -16.653,-7.3401 -23.148,-13.094 -13.645,-12.088 -25.392,-26.028 -33.353,-42.809 -6.2126,-13.096 -10.412,-26.686 -12.192,-41.076 -0.5992,-4.8431 -2.5481,-9.5952 -2.6314,-14.41 -0.1836,-10.587 0.5078,-21.186 0.677,-31.783 0.063,-3.9438 -0.8845,-7.966 -0.3857,-11.825 0.6255,-4.8423 2.654,-9.4938 3.3974,-14.332 3.2723,-21.302 13.9,-39.109 26.396,-55.995 2.8282,-3.8217 6.5559,-6.992 9.9673,-10.363 3.8296,-3.7847 7.4046,-7.975 11.755,-11.047 5.3345,-3.7658 11.256,-6.7584 17.114,-9.7059 5.3015,-2.6672 10.792,-4.9992 16.334,-7.1307 2.7,-1.0385 5.7347,-1.1713 8.5618,-1.9244 2,-0.53281 3.8586,-1.6326 5.8694,-2.079 1.5945,-0.3541 3.3711,0.14813 4.9846,-0.16013 6.9246,-1.3228 13.767,-3.5405 20.738,-4.0325 7.7837,-0.54934 15.675,0.39588 23.517,0.74616 0.9678,0.0432 1.9089,0.54297 2.8811,0.63611 7.3232,0.70172 14.754,0.81671 21.944,2.1956 5.5879,1.0716 10.931,3.5633 16.284,5.6743 5.6418,2.2248 11.277,4.5211 16.717,7.1887 9.674,4.7432 17.134,11.624 22.092,21.554 5.95,11.916 -1.5068,21.226 -5.2546,31.06 -2.6145,6.8602 -7.2934,12.934 -10.564,18.527 -8.0134,-5.2695 -15.467,-10.21 -22.964,-15.083 -3.5095,-2.2811 -6.8867,-4.9678 -10.71,-6.5173 -5.8254,-2.3609 -11.892,-4.3565 -18.039,-5.6112 -3.9239,-0.80093 -8.18,0.14386 -12.283,0.0724 -4.7797,-0.0832 -9.5683,-0.72763 -14.328,-0.52777 -2.6326,0.1105 -5.1902,1.5439 -7.8254,2.206 -2.1602,0.54264 -4.4458,0.62345 -6.572,1.2572 -16.6,4.9481 -27.228,16.338 -33.602,31.957 -1.7024,4.1719 -2.2212,8.819 -3.3799,13.223 -1.217,4.6252 -2.5652,9.2157 -3.8188,13.831 -0.2608,0.96039 -0.5281,1.9693 -0.5034,2.9487 0.1811,7.2767 0.4223,14.552 0.6706,21.827 0.1853,5.4178 0.024,10.884 0.7188,16.238 0.7756,5.9764 2.3442,11.85 3.7077,18.14 z"
           id="path12" /><path
           d="m 1593.5,638.54 c -19.055,-17.728 -30.31,-39.457 -36.165,-64.199 -1.6852,-7.122 -3.319,-14.263 -4.6596,-21.455 -0.371,-1.9905 0.5978,-4.1923 0.6098,-6.2991 0.067,-11.821 -0.091,-23.643 0.074,-35.462 0.091,-6.5506 -0.6502,-13.515 1.2865,-19.555 4.2646,-13.3 9.421,-26.397 15.322,-39.06 3.8601,-8.284 9.07,-16.138 14.797,-23.286 4.0352,-5.0365 9.9576,-8.5595 15.031,-12.766 3.3194,-2.7524 6.4265,-5.8207 9.9967,-8.1938 3.5362,-2.3505 7.441,-4.22 11.349,-5.9219 7.7603,-3.3796 15.576,-6.6518 23.489,-9.6505 3.1607,-1.1978 6.6077,-1.8051 9.9811,-2.2412 6.5868,-0.8515 13.208,-1.4532 19.825,-2.0478 7.8257,-0.70325 15.657,-1.6802 23.495,-1.7683 4.1628,-0.0469 8.313,1.7717 12.525,2.3219 5.2679,0.68814 10.727,0.35559 15.858,1.5341 5.6066,1.2879 11.014,3.6025 16.361,5.8222 8.1313,3.3748 16.895,5.9739 23.958,10.94 5.7935,4.0734 9.684,10.979 14.067,16.889 2.9281,3.9483 4.561,8.9352 2.7947,13.527 -3.5438,9.2116 -7.9707,18.084 -12.05,27.088 -0.2728,0.60171 -0.6756,1.1468 -1.0375,1.7055 -5.3187,8.2134 -5.1569,7.9933 -12.906,2.2559 -6.2499,-4.6271 -12.672,-9.1831 -19.546,-12.755 -5.5116,-2.8637 -12.238,-3.4287 -17.672,-6.3936 -8.8442,-4.8254 -17.87,-0.74411 -26.708,-1.9057 -3.2424,-0.42612 -6.8135,-1.3133 -9.7654,-0.427 -8.6579,2.5993 -17.86,3.7768 -25.39,9.6316 -13.137,10.215 -20.246,23.793 -23.781,39.775 -2.8153,12.727 -4.6083,25.48 -3.5909,38.51 0.5023,6.4339 0.8687,12.929 2.0764,19.247 3.1185,16.318 8.2258,31.884 21.504,43.05 4.3128,3.6266 9.6063,6.1238 14.572,8.9224 2.7467,1.5478 5.6766,3.5709 8.641,3.7891 11.003,0.80975 21.998,6.0962 33.108,0.5296 0.5696,-0.28534 1.2842,-0.30994 1.9392,-0.39142 3.9781,-0.49445 8.1188,-0.43958 11.898,-1.5834 4.9897,-1.5103 10.068,-3.3688 14.438,-6.1364 6.6178,-4.1916 12.85,-9.0668 18.849,-14.123 2.4359,-2.0534 3.5652,-2.2366 5.475,0.24853 6.7459,8.7788 11.243,18.677 15.24,28.923 5.5737,14.288 -0.9195,24.688 -11.078,33.246 -4.6052,3.88 -10.994,5.6375 -16.563,8.3804 -4.0262,1.983 -7.9852,4.111 -12.071,5.9615 -2.0923,0.94763 -4.3521,1.7024 -6.6129,2.0636 -4.634,0.74011 -9.3481,0.98535 -13.976,1.7562 -4.1656,0.69384 -8.2448,2.521 -12.388,2.6065 -8.7623,0.18073 -17.544,-0.73639 -26.312,-0.64038 -5.3853,0.0588 -10.439,0.12024 -15.86,-1.4384 -7.7794,-2.237 -16.338,-1.76 -24.12,-3.9911 -7.5057,-2.1521 -14.46,-6.2434 -21.632,-9.536 -4.0053,-1.8387 -8.3433,-3.2611 -11.843,-5.8146 -4.5518,-3.3211 -8.4198,-7.5796 -12.833,-11.683 z"
           id="path13" /><path
           d="m 1882,406.99 c 0.911,1.1476 1.8222,2.2951 2.9025,4.0602 2.1379,7.4145 5.7811,14.202 5.8189,21.01 0.4229,76.123 0.275,152.25 0.3603,228.38 0,3.0531 -0.8313,4.7922 -4.0229,4.9438 -8.4457,0.40094 -16.89,1.0685 -25.337,1.1158 -5.608,0.0315 -11.221,-0.8222 -16.832,-1.2797 -0.4388,0.025 -0.8776,0.0499 -1.917,0.0407 -5.0811,-2.4039 -9.5614,-4.7737 -14.042,-7.1436 -0.719,-0.67504 -1.4379,-1.3501 -2.4652,-2.4887 -0.883,-0.99323 -1.4574,-1.523 -2.0318,-2.0527 -0.4499,-0.651 -0.8999,-1.302 -1.53,-2.5485 -5.7334,-9.5371 -7.1826,-19.475 -7.1852,-29.741 -0.014,-54.6 -0.01,-109.2 -0.01,-163.8 -5e-4,-18.977 0.104,-37.955 -0.1008,-56.93 -0.042,-3.9311 1.3163,-5.4053 5.0478,-5.5487 5.9669,-0.22931 11.95,-1.1946 17.882,-0.91028 8.8899,0.42621 17.741,1.6652 26.608,2.5585 0.4764,-0.0125 0.9527,-0.0249 1.7928,0.17209 3.5235,1.9273 6.6834,3.6452 9.8432,5.3631 0,0 0.1892,-0.14575 0.1631,0.23706 0.8148,0.90372 1.6558,1.4246 2.4966,1.9455 0,-3e-5 0.1003,0.0799 0.2141,0.41616 0.8563,0.95911 1.5989,1.5819 2.3414,2.2048 z"
           id="path14" /><path
           d="m 1873.1,355.34 c -5.9431,1.0731 -11.755,1.2862 -17.167,2.8678 -5.1583,1.5074 -9.8363,2.1498 -14.853,-0.10809 -1.7541,-0.78949 -3.9907,-1.2714 -5.842,-0.94861 -8.0037,1.3957 -12.328,-4.0443 -14.606,-9.6214 -3.1228,-7.6461 -5.1894,-15.509 -2.7937,-24.714 2.5527,-9.8096 4.4132,-19.703 9.0547,-28.809 5.1757,-10.153 11.263,-19.834 22.206,-24.36 5.6444,-2.3342 11.218,-6.3584 18.136,-4.6033 1.6778,0.42572 3.6101,-0.0978 5.4184,-0.26135 0.9693,-0.0877 2.1082,-0.76746 2.8558,-0.4466 5.7236,2.4571 11.763,4.4811 16.954,7.81 9.365,6.0057 15.57,14.691 18.436,25.604 0.7471,2.8456 1.9842,5.5802 2.5343,8.4541 0.3975,2.0767 0.5083,4.4433 -0.09,6.4285 -1.4122,4.687 -3.1685,9.2887 -5.0658,13.807 -4.231,10.076 -11.824,16.912 -21.442,21.73 -4.5008,2.2545 -8.9545,4.6024 -13.735,7.17 z"
           id="path15" /></g><path
         d="m 702.96,329.05 c 1.7864,1.4718 3.7493,2.7764 5.3291,4.4439 7.4514,7.8649 15.537,15.276 21.995,23.898 8.1279,10.851 15.103,22.595 22.173,34.199 4.4603,7.3203 8.591,14.905 12.12,22.71 3.2576,7.2041 5.7075,14.798 8.1593,22.335 2.3617,7.2602 4.4304,14.626 6.3362,22.021 2.1916,8.5036 4.2448,17.053 5.975,25.66 0.60009,2.9849 -0.17676,6.2189 0.0754,9.3065 0.7934,9.7149 2.0558,19.4 2.5606,29.126 0.22705,4.3737 -1.1113,8.8058 -1.3868,13.233 -0.44006,7.0712 -0.14282,14.215 -0.9975,21.225 -0.67187,5.5107 -2.6483,10.858 -3.9792,16.294 -1.3868,5.6644 -2.4914,11.406 -4.0862,17.01 -2.1547,7.5709 -4.5299,15.086 -7.0388,22.548 -7.2507,21.565 -18.655,41.028 -30.922,60 -4.1616,6.4363 -9.0162,12.43 -13.681,18.529 -0.62958,0.82319 -2.0043,1.0764 -3.2808,1.4497 0.24182,-0.79492 0.76593,-1.4227 1.2134,-2.101 2.8403,-4.3049 5.6636,-8.6208 8.4835,-12.935 -0.009,-0.002 -0.003,0.0118 0.31916,-0.0314 0.78741,-0.68506 1.2531,-1.327 2.0167,-2.1229 17.105,-22.421 39.31,-68.046 36.222,-74.688 -1.9245,4.0721 -3.9636,7.8356 -5.5038,11.793 -1.698,4.3635 -5.8224,7.1981 -9.8573,6.6242 -1.7172,2.0594 -2.9268,4.4092 -4.8504,5.6663 -10.191,6.6597 -20.248,13.63 -30.956,19.364 -11.214,6.0048 -23.023,10.942 -34.757,15.908 -4.518,1.9119 -9.5428,2.632 -14.344,3.8669 -8.6028,2.2126 -17.101,5.2138 -25.845,6.4005 -11.126,1.5101 -22.447,1.9199 -33.696,2.1049 -10.61,0.17456 -21.252,-0.2904 -31.846,-0.98242 -7.3843,-0.48236 -14.783,-1.4655 -22.043,-2.8978 -5.4726,-1.0797 -10.63,-3.9995 -16.111,-4.7459 -14.136,-1.9246 -27.114,-7.1157 -39.417,-13.752 -14.612,-7.8816 -28.726,-16.704 -42.887,-25.393 -3.3017,-2.026 -5.8075,-5.3052 -8.8787,-7.7585 -13.124,-10.484 -26.47,-20.797 -36.217,-34.705 -4.0109,-5.7233 -11.51,-9.2347 -11.606,-17.581 -0.005,-0.45196 -0.85131,-0.94476 -1.3702,-1.3327 -4.8666,-3.6384 -9.7364,-7.2728 -14.629,-10.877 -2.1884,-1.6119 -1.7084,-2.5684 1.0008,-3.068 4.0104,2.287 7.5648,4.7645 11.414,6.6345 9.7018,4.7127 19.362,9.5905 29.37,13.57 9.0587,3.6023 18.555,6.1048 28.139,9.2215 1.8948,0.63171 3.5083,1.1342 5.543,1.6873 0.97973,0.138 1.5384,0.22546 2.1645,0.5382 0.77954,0.40027 1.4915,0.57526 2.6909,0.86902 3.8418,0.95392 7.1592,2.0083 10.558,2.5795 7.4596,1.2538 14.929,2.667 22.453,3.256 7.2042,0.56378 14.484,0.11151 21.73,0.20722 9.5944,0.12664 19.192,0.58844 28.779,0.40875 3.4388,-0.0644 6.8081,-1.9165 10.284,-2.3486 6.3086,-0.78443 12.675,-1.0982 19.013,-1.6596 0.80816,-0.0716 1.5981,-0.42413 2.3812,-0.69116 3.5589,-1.2132 7.0501,-2.6909 10.684,-3.6021 4.4386,-1.1131 9.1143,-1.369 13.467,-2.7106 4.3238,-1.3328 8.3055,-3.7347 12.56,-5.3422 6.743,-2.5477 13.69,-4.5769 20.355,-7.3011 4.5675,-1.8666 8.931,-4.3329 13.163,-6.8979 8.7639,-5.311 17.379,-10.867 26.441,-16.298 7.21,-5.3746 14.761,-10.076 20.733,-16.294 23.92,-24.909 37.905,-54.635 40.535,-89.246 0.60748,-7.9948 -0.35932,-16.109 -0.51087,-24.539 -0.015,-0.86029 -0.12073,-1.35 -0.11291,-2.2608 -2.7084,-11.578 -5.5302,-22.735 -8.3517,-34.094 -0.0721,-0.49405 -0.25506,-0.67332 -0.60064,-1.0979 -0.33289,-1.0203 -0.61377,-1.6823 -0.85767,-2.7119 -2.7872,-5.7102 -5.6115,-11.053 -8.3832,-16.638 -0.002,-0.59921 -0.19134,-0.85788 -0.54138,-1.3683 -3.2504,-4.9304 -6.4734,-9.5114 -9.7267,-14.281 -0.0302,-0.18832 -0.35015,-0.39602 -0.35711,-0.63693 -0.16187,-0.56689 -0.4198,-0.73404 -0.77558,-0.7471 0.005,-0.005 -0.004,0.006 -0.0377,-0.32522 -0.95318,-1.2771 -1.873,-2.2226 -2.8649,-3.4122 -0.44628,-0.57907 -0.82055,-0.91397 -1.2253,-1.5477 -0.61621,-0.79962 -1.2019,-1.3004 -1.8159,-1.7569 -0.0282,0.0443 0.0398,-0.0401 0.0451,-0.35565 -0.0463,-0.73191 -0.0978,-1.1483 -0.13141,-1.5794 0.0179,-0.0149 -0.005,0.0249 -0.005,0.0249 z"
         fill="#027cb6"
         id="path16" /><path
         d="m 732.02,678.01 c -2.8289,4.3123 -5.6523,8.6282 -8.4926,12.933 -0.44751,0.67828 -0.97162,1.306 -1.4945,2.2745 -0.64612,1.0684 -1.2579,1.8195 -2.4347,2.894 -6.2348,5.8498 -11.905,11.376 -17.779,16.653 -3.3876,1.2837 -6.5163,2.9457 -9.7643,4.3276 -13.544,5.7623 -27.975,7.9875 -42.394,9.8056 -14.591,1.8398 -29.277,3.1763 -43.962,3.9004 -7.3611,0.36292 -14.823,-1.7599 -22.223,-1.653 -18.105,0.2616 -35.456,-3.9642 -52.909,-7.7908 -3.218,-0.70557 -6.6143,-0.88367 -9.6657,-2.0139 -12.45,-4.6113 -24.984,-9.0719 -37.13,-14.403 -12.115,-5.3175 -24.266,-10.843 -35.55,-17.682 -12.141,-7.3583 -23.47,-16.115 -34.809,-24.717 -6.5518,-4.9706 -12.923,-10.375 -18.499,-16.397 -13.394,-14.464 -27.87,-28.045 -38.333,-45.028 -6.5845,-10.687 -13.583,-21.129 -19.856,-31.992 -3.4586,-5.9885 -6.0503,-12.523 -8.595,-18.984 -4.1678,-10.582 -8.01,-21.292 -11.921,-31.973 -1.188,-3.2443 -2.4584,-6.5066 -3.162,-9.8713 -2.5285,-12.091 -5.1844,-24.174 -7.1216,-36.366 -2.041,-12.847 -3.954,-25.777 -4.7232,-38.743 -0.6365,-10.729 -0.0127,-21.606 0.97122,-32.334 0.71811,-7.8294 2.9252,-15.523 4.4772,-23.275 0.77337,-3.863 1.5661,-7.7222 2.4983,-11.886 1.5476,-2.1442 2.9895,-3.9555 4.3376,-5.8342 2.848,-3.9689 5.647,-7.9731 8.466,-11.963 0.0845,-0.19455 0.16894,-0.38907 0.81436,-0.80938 2.1774,-1.4413 3.7938,-2.6569 5.3889,-3.5199 -0.93954,2.0903 -1.8981,3.808 -2.7688,5.5692 -4.0953,8.2838 -8.1665,16.579 -12.323,25.234 -1.0918,3.1307 -2.1075,5.8988 -3.3711,8.8681 -0.41665,1.7131 -0.58545,3.225 -0.74548,5.1157 -0.0808,1.1298 -0.17023,1.8806 -0.5806,2.7189 -0.71631,2.3501 -1.1118,4.6127 -1.4911,7.2164 -0.0279,0.79373 -0.0719,1.2463 -0.46582,1.8043 -0.74011,4.6893 -1.1302,9.273 -1.4875,14.321 2.2e-4,4.1935 -0.0325,7.9229 -0.32757,11.944 0.22745,3.4171 0.71728,6.5424 1.2518,10.097 1.0649,6.1425 2.0851,11.855 2.8682,17.774 0.51328,1.7371 1.2637,3.2681 2.0937,5.1842 0.46021,1.6251 0.69824,2.9318 1.2438,4.0944 5.0578,10.778 10.169,21.531 14.922,32.382 -0.62399,0.79303 -0.90591,1.4951 -1.1879,2.197 1.0916,-0.0531 2.1832,-0.10626 3.5597,0.0251 1.158,1.7152 2.031,3.2458 2.6067,4.9778 -0.44922,0.81818 -0.90354,1.5607 -0.70734,2.0332 2.7666,6.6631 5.4829,13.353 8.494,19.907 3.0891,6.7236 6.2886,13.412 9.793,19.926 6.7252,12.5 12.959,25.357 20.773,37.155 8.3777,12.649 17.422,25.121 27.848,36.078 12.282,12.908 25.818,24.789 39.787,35.886 20.643,16.399 44.494,27.569 68.755,37.389 12.433,5.0326 25.802,8.1713 39.026,10.729 17.305,3.3465 34.818,6.1193 52.37,7.5027 11.254,0.88691 22.796,-0.71008 34.108,-2.05 10.946,-1.2966 21.833,-3.357 32.617,-5.6817 14.958,-3.2246 30.076,-6.1467 43.536,-14.09 0.56458,-0.33312 1.2107,-0.54376 1.8386,-0.75189 6.179,-2.0484 12.62,-3.4496 17.615,-8.1791 0.89569,-0.84797 2.7844,-0.64716 4.2145,-0.93049 z"
         fill="#016697"
         id="path17" /><path
         d="m 259.4,559.88 c -0.15539,-1.3297 -0.31076,-2.6594 -0.38391,-4.7462 0.0433,-1.5615 0.004,-2.366 0.17813,-3.4802 -0.011,-5.1027 -0.23486,-9.8954 -0.0673,-14.646 1.5541,1.8612 3.0856,3.5435 3.8162,5.5215 3.3768,9.1422 5.8647,18.674 9.9248,27.488 5.7382,12.457 12.533,24.432 18.968,36.563 3.3292,6.2762 6.19,12.949 10.423,18.569 11.545,15.325 23.16,30.664 35.802,45.072 9.6445,10.991 20.636,20.862 31.523,30.683 8.8387,7.9735 17.932,15.846 27.782,22.471 12.041,8.0996 24.926,14.961 37.561,22.156 13.93,7.9322 28.238,15.054 43.632,19.831 14.201,4.4069 28.216,9.4447 42.515,13.489 6.7567,1.9112 13.998,2.0784 20.992,3.2079 1.365,0.22046 2.6019,1.2348 3.4358,1.9506 -18.826,0.5459 -37.273,2.2643 -55.494,-0.97808 -15.909,-2.831 -31.675,-6.5069 -47.434,-10.114 -6.3648,-1.4567 -12.545,-3.7218 -18.809,-5.619 -0.40195,-0.1109 -0.80386,-0.2218 -1.633,-0.74231 -0.9376,-0.83252 -1.382,-1.4216 -1.968,-1.6545 -20.831,-8.2805 -39.857,-19.707 -57.829,-32.999 -2.7322,-2.0207 -5.6579,-3.7797 -8.4941,-5.6598 0,0 -0.37881,-0.27338 -0.57114,-0.76795 -5.9384,-5.4079 -11.684,-10.321 -17.43,-15.235 0,0 -0.0314,-0.044 -0.0304,-0.38788 -0.6532,-0.771 -1.3075,-1.1981 -1.9618,-1.6252 0,0 -0.0296,-0.0419 -0.0259,-0.38537 -0.64969,-0.77613 -1.303,-1.2088 -1.9563,-1.6415 0,0 -0.0142,-0.0485 -0.006,-0.40125 -5.3155,-6.1157 -10.639,-11.879 -15.963,-17.642 0,0 0.006,-0.0557 0.0104,-0.40595 -4.9118,-7.417 -9.9202,-14.421 -14.727,-21.561 -20.897,-31.039 -34.045,-65.114 -39.884,-102.05 -0.23428,-1.4822 -1.2453,-2.8417 -1.8944,-4.2584 z"
         fill="#033555"
         id="path18" /><path
         d="m 309,365.99 c -0.78396,3.8609 -1.5767,7.7201 -2.3501,11.583 -1.552,7.7522 -3.7591,15.446 -4.4772,23.275 -0.98388,10.727 -1.6077,21.605 -0.97122,32.334 0.76923,12.965 2.6821,25.896 4.7232,38.743 1.9371,12.192 4.5931,24.275 7.1216,36.366 0.70364,3.3646 1.974,6.627 3.162,9.8713 3.9112,10.681 7.7534,21.392 11.921,31.973 2.5447,6.4607 5.1364,12.995 8.595,18.984 6.2737,10.863 13.272,21.305 19.856,31.992 10.464,16.983 24.939,30.563 38.333,45.028 5.5759,6.0213 11.947,11.426 18.499,16.397 11.338,8.6019 22.667,17.359 34.809,24.717 11.284,6.8389 23.436,12.364 35.55,17.682 12.146,5.331 24.68,9.7916 37.13,14.403 3.0514,1.1302 6.4477,1.3083 9.6657,2.0139 17.452,3.8266 34.803,8.0524 52.909,7.7908 7.4002,-0.10693 14.862,2.0159 22.223,1.653 14.685,-0.72412 29.372,-2.0606 43.962,-3.9004 14.419,-1.8181 28.85,-4.0433 42.394,-9.8056 3.248,-1.3818 6.3767,-3.0439 9.6157,-4.0326 -1.5237,2.3806 -3.1028,4.2166 -4.6818,6.0526 -1.194,1.2233 -2.3881,2.4465 -4.1974,3.8773 -1.7119,1.2367 -2.8085,2.266 -3.905,3.2954 -0.36524,0.36639 -0.73047,0.73279 -1.6719,1.3218 -1.1298,0.76581 -1.6834,1.309 -2.2369,1.8522 -0.50842,0.46161 -1.0169,0.92322 -2.1584,1.5646 -1.9868,0.90918 -3.3405,1.6387 -4.8861,2.0438 -0.79926,-0.50159 -1.457,-0.92908 -2.0064,-0.81842 -9.479,1.9082 -18.892,4.203 -28.425,5.7707 -15.849,2.6063 -31.75,4.9736 -47.921,4.0073 -4.3121,-0.25763 -8.6848,0.13092 -12.954,-0.39185 -7.9309,-0.97088 -15.802,-2.4227 -23.706,-3.6217 -10.434,-1.5828 -20.972,-2.6576 -31.281,-4.8253 -7.2096,-1.5159 -14.079,-4.6004 -21.16,-6.7923 -6.7812,-2.0992 -13.944,-3.2497 -20.398,-6.0609 -12.455,-5.4252 -24.91,-11.065 -36.66,-17.837 -13.858,-7.987 -27.156,-16.998 -40.356,-26.061 -15.337,-10.53 -28.1,-23.997 -40.638,-37.602 -6.6226,-7.1863 -13.472,-14.338 -18.941,-22.374 -9.02,-13.254 -17.36,-27.009 -25.333,-40.927 -9.5735,-16.711 -16.975,-34.389 -22.583,-52.901 -4.595,-15.169 -9.0459,-30.275 -10.687,-46.105 -1.503,-14.502 -3.7522,-28.948 -4.6795,-43.481 -0.522,-8.1818 0.73529,-16.516 1.6173,-24.736 0.73233,-6.8252 2.0879,-13.584 3.3107,-20.689 2.3607,-4.7786 4.578,-9.2394 6.7953,-13.7 0,0 0.074,0.0789 0.36288,0.0322 0.82172,-1.1227 1.3546,-2.1987 1.8874,-3.2747 0,0 0.0785,-0.41388 0.56098,-0.57618 1.7416,-1.4778 3.0008,-2.7932 4.2599,-4.1086 z"
         fill="#005e8d"
         id="path19" /><path
         d="m 274.79,425.96 c 0.0735,-0.54169 0.14685,-1.0834 0.80695,-2.0514 1.4632,-2.9144 2.3397,-5.4025 3.2162,-7.8906 0.0958,-0.6264 0.19165,-1.2528 0.92093,-2.0378 1.229,-1.4034 1.8245,-2.6482 2.7763,-3.8366 0.67972,0.40463 1.2908,0.75791 1.285,1.1007 -0.23071,13.641 -0.65402,27.28 -0.72268,40.922 -0.024,4.7754 0.46191,9.6175 1.3128,14.321 2.3769,13.139 4.4037,26.395 7.8034,39.28 4.0861,15.485 8.8404,30.862 14.461,45.852 3.9249,10.468 9.2252,20.541 14.92,30.196 8.8269,14.964 17.35,30.351 28.144,43.845 12.248,15.312 26.591,29.004 40.548,42.872 7.0833,7.0377 15.148,13.139 23.1,19.233 5.203,3.9874 10.887,7.3908 16.551,10.725 12.687,7.4675 25.144,15.446 38.335,21.907 20.433,10.009 42.298,16.323 64.41,21.437 11.876,2.7462 24.027,4.3727 36.11,6.1154 5.884,0.84876 12.095,-0.0322 17.814,1.3227 17.138,4.0601 33.972,-0.0802 50.917,-0.99653 6.9053,-0.37341 13.78,-1.3143 20.492,-1.7072 -6.7894,4.0139 -13.402,7.7379 -20.11,11.283 -0.36816,-0.0117 -0.64136,0.15527 -1.207,0.38245 -0.69006,0.075 -1.0876,0.0897 -1.7114,-0.21314 -13.216,1.4913 -26.233,2.8096 -39.379,1.9913 -1.328,-0.0826 -2.6738,0.0405 -3.9922,-0.10511 -14.608,-1.6136 -29.269,-2.877 -43.799,-5.029 -10.415,-1.5427 -20.793,-3.7851 -30.928,-6.6379 -9.8612,-2.7757 -19.47,-6.5227 -29.047,-10.214 -10.667,-4.1114 -21.543,-7.9276 -31.657,-13.166 -13.166,-6.8187 -25.718,-14.834 -38.438,-22.494 -4.9536,-2.9827 -10.101,-5.8893 -14.375,-9.7095 -13.936,-12.457 -27.83,-24.996 -41.101,-38.148 -7.8391,-7.7693 -14.82,-16.49 -21.541,-25.276 -5.9868,-7.826 -11.376,-16.155 -16.504,-24.581 -6.5089,-10.696 -12.883,-21.512 -18.571,-32.656 -4.5756,-8.9655 -8.408,-18.361 -11.903,-27.813 -3.6675,-9.9172 -7.1443,-19.983 -9.6152,-30.246 -3.4397,-14.287 -6.257,-28.756 -8.5747,-43.269 -1.3119,-8.2149 -0.95694,-16.685 -1.6294,-25.018 -0.26169,-3.2431 -1.2839,-6.4249 -1.9475,-10.012 0.95139,-3.4768 1.8905,-6.576 2.8296,-9.675 z"
         fill="#00557f"
         id="path20" /><path
         d="m 658.17,746.27 c -6.8886,0.6828 -13.763,1.6237 -20.668,1.9971 -16.945,0.91633 -33.779,5.0566 -50.917,0.99653 -5.7188,-1.3549 -11.93,-0.47394 -17.814,-1.3227 -12.083,-1.7427 -24.235,-3.3693 -36.11,-6.1154 -22.113,-5.1136 -43.977,-11.428 -64.41,-21.437 -13.191,-6.4615 -25.648,-14.44 -38.335,-21.907 -5.6636,-3.3338 -11.348,-6.7372 -16.551,-10.725 -7.9515,-6.0938 -16.016,-12.195 -23.1,-19.233 -13.957,-13.868 -28.3,-27.559 -40.548,-42.872 -10.794,-13.494 -19.317,-28.881 -28.144,-43.845 -5.6949,-9.6544 -10.995,-19.728 -14.92,-30.196 -5.6207,-14.99 -10.375,-30.367 -14.461,-45.852 -3.3997,-12.884 -5.4265,-26.141 -7.8034,-39.28 -0.85092,-4.7035 -1.3369,-9.5456 -1.3128,-14.321 0.0687,-13.641 0.49197,-27.281 0.72268,-40.922 0.006,-0.34283 -0.60528,-0.69611 -1.3192,-1.1204 -0.3905,-0.0759 -0.44067,-0.13666 -0.41144,-0.40488 0.0226,-0.6224 0.016,-0.97653 0.009,-1.3307 0.31067,-0.53228 0.62134,-1.0645 1.3617,-1.3332 0.82052,0.66098 1.2113,1.0584 1.6022,1.4558 0.14389,-0.21936 0.42996,-0.61706 0.41098,-0.63223 -0.55753,-0.44452 -1.1454,-0.85098 -1.7284,-1.2635 1.9938,-4.3972 3.9876,-8.7944 6.5777,-13.46 1.9602,-1.9173 3.324,-3.5665 4.6878,-5.2157 -1.0795,6.788 -2.435,13.546 -3.1674,20.371 -0.88199,8.22 -2.1393,16.555 -1.6173,24.736 0.92722,14.534 3.1765,28.979 4.6795,43.481 1.6407,15.831 6.0916,30.936 10.687,46.105 5.6078,18.513 13.009,36.19 22.583,52.901 7.9733,13.918 16.313,27.673 25.333,40.927 5.4692,8.0365 12.318,15.188 18.941,22.374 12.538,13.605 25.301,27.072 40.638,37.602 13.2,9.0628 26.498,18.074 40.356,26.061 11.751,6.7724 24.205,12.412 36.66,17.837 6.4536,2.8112 13.617,3.9616 20.398,6.0609 7.0809,2.1919 13.95,5.2764 21.16,6.7923 10.309,2.1676 20.847,3.2425 31.281,4.8253 7.904,1.199 15.775,2.6508 23.706,3.6217 4.2697,0.52277 8.6423,0.13422 12.954,0.39185 16.171,0.96625 32.072,-1.401 47.921,-4.0073 9.5331,-1.5677 18.946,-3.8625 28.425,-5.7707 0.54938,-0.11066 1.2072,0.31683 1.7872,1.0533 -4.424,3.3284 -8.8206,6.0974 -13.625,8.8238 -1.2539,0.65406 -2.1001,1.3506 -2.9635,2.0436 -0.0172,-0.004 -0.0153,-0.0386 -0.38556,-0.0756 -1.1178,0.66376 -1.8654,1.3645 -2.6011,2.0944 0.0118,0.0291 0.0335,0.088 0.0335,0.088 z"
         fill="#015a86"
         id="path21" /><path
         d="m 732.01,678.01 c -1.4211,0.2854 -3.3098,0.0846 -4.2054,0.93256 -4.9957,4.7295 -11.436,6.1307 -17.615,8.1791 -0.62793,0.20813 -1.274,0.41877 -1.8386,0.75189 -13.459,7.9434 -28.577,10.866 -43.536,14.09 -10.784,2.3247 -21.671,4.3851 -32.617,5.6817 -11.312,1.34 -22.854,2.937 -34.108,2.05 -17.552,-1.3834 -35.065,-4.1562 -52.37,-7.5027 -13.224,-2.5572 -26.593,-5.6959 -39.026,-10.729 -24.26,-9.8199 -48.112,-20.989 -68.755,-37.389 -13.969,-11.097 -27.505,-22.978 -39.787,-35.886 -10.426,-10.958 -19.471,-23.43 -27.848,-36.078 -7.8139,-11.797 -14.048,-24.654 -20.773,-37.155 -3.5044,-6.5138 -6.704,-13.202 -9.793,-19.926 -3.0111,-6.5538 -5.7274,-13.244 -8.494,-19.907 -0.1962,-0.47248 0.25812,-1.215 0.97431,-1.8596 1.9817,1.5463 3.3991,3.1203 4.8396,5.0179 0.64625,0.79834 1.2693,1.2731 2.1892,1.9042 11.045,11.884 22.471,22.816 36.013,31.37 3.8909,2.4576 7.4585,5.4272 11.174,8.162 -2.3876,0.58581 -2.8676,1.5422 -0.67923,3.1542 4.8923,3.6038 9.7621,7.2381 14.629,10.877 0.51886,0.38794 1.365,0.88074 1.3702,1.3327 0.0958,8.3464 7.5947,11.858 11.606,17.581 9.7466,13.908 23.092,24.221 36.217,34.705 3.0712,2.4533 5.577,5.7325 8.8787,7.7585 14.161,8.6891 28.275,17.511 42.887,25.393 12.302,6.6359 25.281,11.827 39.417,13.752 5.4818,0.7464 10.639,3.6662 16.111,4.7459 7.2596,1.4322 14.659,2.4154 22.043,2.8978 10.595,0.69202 21.237,1.157 31.846,0.98242 11.248,-0.18494 22.569,-0.59479 33.696,-2.1049 8.7436,-1.1868 17.242,-4.1879 25.845,-6.4005 4.8013,-1.2349 9.8262,-1.955 14.344,-3.8669 11.734,-4.9659 23.543,-9.9034 34.757,-15.908 10.708,-5.7338 20.765,-12.704 30.956,-19.364 1.9236,-1.2571 3.1332,-3.6069 4.8504,-5.6663 4.0348,0.57385 8.1593,-2.2607 9.8573,-6.6242 1.5402,-3.9578 3.5793,-7.7213 5.5038,-11.793 3.0875,6.6423 -19.117,52.268 -36.55,74.726 -1.0874,0.83703 -1.549,1.4828 -2.0104,2.1286 0,0 -0.006,-0.0139 0.003,-0.0118 z"
         fill="#0071a7"
         id="path22" /><path
         d="m 259.12,537.01 c -3.8443,-9.682 -3.0651,-19.422 -1.0886,-29.191 0.49011,-2.4226 1.1873,-4.8241 1.4349,-7.2711 0.86579,-8.5579 1.5766,-17.132 2.7106,-25.888 0.84878,1.7228 1.7346,3.63 1.7568,5.5471 0.27396,23.654 8.1427,45.565 16.07,67.307 5.0976,13.98 11.513,27.561 18.332,40.809 6.2686,12.179 13.412,23.978 21.021,35.376 6.3243,9.4746 13.419,18.54 21.005,27.043 11.647,13.055 23.465,26.056 36.251,37.964 9.134,8.5071 19.864,15.335 30.074,22.645 20.419,14.62 42.069,27.028 65.682,35.831 9.7771,3.645 19.304,8.1127 29.293,10.999 12.829,3.7073 25.924,6.6597 39.061,9.0867 13.272,2.4518 26.71,4.0875 40.127,5.6287 5.836,0.67041 11.802,0.21082 17.709,0.26447 -14.216,3.0604 -28.428,6.1357 -42.65,9.1691 -3.0319,0.64679 -6.0964,1.1413 -9.5484,1.66 -1.6986,-0.69415 -2.9355,-1.7085 -4.3005,-1.929 -6.994,-1.1295 -14.235,-1.2967 -20.992,-3.2079 -14.299,-4.0446 -28.314,-9.0823 -42.515,-13.489 -15.394,-4.7772 -29.702,-11.899 -43.632,-19.831 -12.635,-7.1949 -25.52,-14.056 -37.561,-22.156 -9.8495,-6.6254 -18.943,-14.498 -27.782,-22.471 -10.887,-9.8212 -21.879,-19.692 -31.523,-30.683 -12.642,-14.408 -24.257,-29.747 -35.802,-45.072 -4.2333,-5.6193 -7.0942,-12.293 -10.423,-18.569 -6.4353,-12.132 -13.23,-24.106 -18.968,-36.563 -4.0602,-8.8144 -6.548,-18.346 -9.9248,-27.488 -0.73065,-1.978 -2.2621,-3.6603 -3.8162,-5.5215 z"
         fill="#004064"
         id="path23" /><path
         d="m 598.86,773.02 c -6.2095,0.09 -12.175,0.54962 -18.011,-0.12079 -13.417,-1.5412 -26.855,-3.1768 -40.127,-5.6287 -13.137,-2.4271 -26.232,-5.3795 -39.061,-9.0867 -9.9894,-2.8868 -19.516,-7.3544 -29.293,-10.999 -23.613,-8.803 -45.263,-21.211 -65.682,-35.831 -10.21,-7.3099 -20.94,-14.138 -30.074,-22.645 -12.785,-11.908 -24.604,-24.909 -36.251,-37.964 -7.5863,-8.5034 -14.681,-17.569 -21.005,-27.043 -7.6086,-11.399 -14.752,-23.197 -21.021,-35.376 -6.8187,-13.248 -13.234,-26.829 -18.332,-40.809 -7.9275,-21.741 -15.796,-43.653 -16.07,-67.307 -0.0222,-1.9171 -0.90802,-3.8243 -1.6979,-5.976 2.9713,-12.661 6.248,-25.082 9.6182,-37.862 0.76932,2.8507 1.7916,6.0324 2.0532,9.2756 0.67243,8.333 0.31748,16.803 1.6294,25.018 2.3177,14.513 5.135,28.982 8.5747,43.269 2.4709,10.263 5.9477,20.329 9.6152,30.246 3.4953,9.4515 7.3278,18.847 11.903,27.813 5.6876,11.144 12.062,21.961 18.571,32.656 5.128,8.4264 10.517,16.755 16.504,24.581 6.7215,8.7864 13.702,17.507 21.541,25.276 13.271,13.153 27.165,25.691 41.101,38.148 4.2738,3.8202 9.4216,6.7268 14.375,9.7095 12.72,7.6594 25.272,15.675 38.438,22.494 10.115,5.2385 20.99,9.0547 31.657,13.166 9.5767,3.6912 19.186,7.4382 29.047,10.214 10.135,2.8528 20.513,5.0952 30.928,6.6379 14.529,2.1521 29.19,3.4155 43.799,5.029 1.3184,0.14557 2.6642,0.0225 3.9922,0.10511 13.145,0.81829 26.163,-0.5 39.379,-1.9913 -6.6583,3.5866 -13.433,7.1194 -20.465,10.034 -4.9306,2.0441 -10.21,3.2455 -15.637,4.9671 z"
         fill="#004d74"
         id="path24" /><path
         d="m 728.74,372.04 c 0.28095,0.66195 0.56183,1.3239 0.50818,2.4856 -0.85846,1.2672 -1.8947,2.0858 -1.8239,2.7937 0.50763,5.0755 1.7003,10.119 1.8046,15.191 0.21009,10.213 0.4513,20.486 -0.39453,30.645 -1.092,13.115 -5.3262,25.567 -11.246,37.273 -1.7115,3.3843 -5.4075,5.765 -8.3142,8.187 0.0893,-1.8216 0.29907,-3.2243 0.81097,-4.8079 0.50794,-1.7925 0.76191,-3.3998 0.91071,-5.0168 0.45447,-4.9385 0.35175,-9.9984 1.4421,-14.789 1.1098,-4.8754 3.5761,-9.4244 5.1003,-14.227 3.4142,-10.757 3.1662,-21.917 2.3167,-32.916 -1.0526,-13.626 -4.6116,-26.845 -11.051,-38.937 -4.3366,-8.1429 -9.0044,-16.465 -15.179,-23.186 -8.3394,-9.0777 -17.771,-17.203 -28.702,-23.486 -10.868,-6.2471 -22.495,-10.335 -34.516,-13.023 -7.0987,-1.5873 -14.742,-1.765 -22.036,-1.2043 -10.082,0.77508 -20.244,2.1276 -30.03,4.5913 -7.3984,1.8627 -14.105,6.3232 -21.412,8.7449 -5.7479,1.905 -11.942,2.4623 -18.064,3.3158 0.78137,-1.9952 1.2731,-4.221 2.6582,-5.2995 16.557,-12.892 36.324,-17.867 56.246,-22.346 6.9012,-1.5514 13.806,-0.92545 20.846,-0.2158 10.062,1.0144 19.569,3.589 28.908,7.1877 4.3975,1.6947 8.8215,3.3206 13.326,5.0064 0.0922,0.0286 0.21515,0.17734 0.36725,0.47162 3.8224,2.0668 7.4928,3.8394 11.163,5.612 6.0092,4.2552 12.018,8.5103 18.395,12.946 0.36786,0.18033 0.48267,0.25058 0.48267,0.25058 0.48864,0.33026 0.97729,0.6605 2.2801,1.2176 0.81414,0.2269 0.68768,0.15397 0.68768,0.15397 0.21173,0.49575 0.42346,0.99148 1.0562,2.2049 0.44116,0.90369 0.38654,1.0583 0.0845,1.4959 0.47662,0.99112 1.1258,1.6678 1.8248,2.3695 0.0497,0.0251 0.10682,0.12054 0.0275,0.46798 1.9039,2.1385 3.8871,3.9296 5.8702,5.7206 0,0 -0.068,0.0844 -0.0422,0.36465 0.63349,0.76392 1.2412,1.2476 1.8489,1.7312 0.37427,0.3349 0.74854,0.6698 1.1627,1.6294 1.0034,1.5375 1.9669,2.4504 2.9304,3.3633 0,0 0.009,-0.0112 0.071,0.20361 0.20801,0.48581 0.42609,0.67356 0.71589,0.77802 0,0 0.31994,0.2077 0.3222,0.77948 3.2622,5.1301 6.522,9.6884 9.7819,14.247 0.32276,0.16086 0.51166,0.41953 0.42786,1.4291 1.8664,5.5944 3.8079,10.564 5.9559,15.442 0.27576,0.62643 1.6247,0.78039 2.4765,1.1533 z"
         fill="#da611e"
         id="path25" /><path
         d="m 677.95,541.92 c 1.9675,-3.0955 4.0759,-6.3966 6.7148,-9.1982 11.02,-11.699 16.2,-26.339 21.025,-41.16 0.71313,-2.1905 0.76977,-4.5946 1.6016,-7.2452 3.4074,-2.4078 7.2529,-3.8696 9.0936,-6.6558 4.0577,-6.142 7.6186,-12.739 10.434,-19.543 3.5152,-8.4961 6.5322,-17.265 8.8971,-26.148 1.7016,-6.3908 1.9845,-13.159 2.9001,-19.759 0.24231,8.0593 1.2091,16.174 0.60163,24.168 -2.6301,34.611 -16.615,64.338 -40.535,89.246 -5.9715,6.2183 -13.523,10.92 -20.733,16.294 z"
         fill="#96460c"
         id="path26" /><path
         d="m 738.7,411.84 c -1.0064,6.9706 -1.2893,13.739 -2.9909,20.13 -2.3649,8.8823 -5.3819,17.652 -8.8971,26.148 -2.8151,6.8039 -6.376,13.401 -10.434,19.543 -1.8407,2.7862 -5.6862,4.248 -8.9767,6.3562 0.31299,-4.6845 0.98047,-9.4147 1.8205,-14.562 2.9588,-3.2583 6.6548,-5.639 8.3663,-9.0233 5.9198,-11.706 10.154,-24.158 11.246,-37.273 0.84583,-10.159 0.60462,-20.432 0.39453,-30.645 -0.10425,-5.0716 -1.2969,-10.115 -1.8046,-15.191 -0.0708,-0.70794 0.96545,-1.5266 1.8758,-2.4354 0.68024,-0.0752 0.86322,0.1041 0.89661,0.99558 1.965,9.3975 3.9235,18.206 6.0026,26.987 0.57324,2.4207 1.5063,4.7561 2.2743,7.1307 0.10571,0.48975 0.21143,0.97949 0.22644,1.8398 z"
         fill="#be551a"
         id="path27" /><path
         d="m 644.93,289.91 c 0.43689,0.14386 0.49481,0.12613 0.83032,0.41486 1.476,0.43264 2.6165,0.57656 3.757,0.72052 3.6597,2.1183 7.3195,4.2367 11.112,6.6452 -4.2792,-1.3669 -8.7032,-2.9929 -13.101,-4.6876 -9.3384,-3.5987 -18.845,-6.1732 -28.908,-7.1877 -7.0395,-0.70965 -13.945,-1.3356 -20.846,0.2158 -19.922,4.4785 -39.689,9.454 -56.246,22.346 -1.3851,1.0785 -1.8768,3.3043 -3.0701,5.3102 -7.0206,2.288 -13.755,4.263 -20.479,5.8442 0.83807,-2.4256 1.1482,-4.9932 2.5917,-6.3879 4.2473,-4.104 8.5957,-8.29 13.543,-11.441 8.3784,-5.3368 17.246,-9.9051 25.909,-14.796 17.672,-5.692 35.788,-6.6713 53.984,-3.9795 10.275,1.5199 20.331,4.5114 30.923,6.9839 z"
         fill="#be551a"
         id="path28" /><path
         d="m 559.68,286.76 c -8.3262,5.0427 -17.194,9.6109 -25.573,14.948 -4.9473,3.1513 -9.2957,7.3372 -13.543,11.441 -1.4435,1.3947 -1.7537,3.9624 -2.9415,6.4579 -3.117,2.08 -5.8742,3.6961 -8.6315,5.3122 -1.522,0.65732 -3.044,1.3147 -5.2478,2.0096 -1.0508,0.0975 -1.4199,0.15753 -2.0762,0.1875 -0.67303,0.31308 -1.0587,0.65622 -1.6049,1.2073 -0.93194,0.65139 -1.7035,1.0948 -2.475,1.5381 -2.9838,2.4173 -6.0023,4.7934 -8.9366,7.2693 -1.4572,1.2295 -2.6995,2.712 -4.1446,3.9576 -3.1218,2.6908 -6.3117,5.3026 -9.5423,7.7086 19.412,-30.044 45.82,-50.73 80.063,-61.094 1.4194,-0.4296 2.877,-0.7327 4.6527,-0.94333 z"
         fill="#96460c"
         id="path29" /><path
         d="m 509.23,325.24 c 2.5181,-1.9435 5.2754,-3.5596 8.3823,-5.2457 7.0839,-2.045 13.818,-4.02 20.964,-6.0057 6.408,-1.1666 12.602,-1.7239 18.35,-3.6289 7.3072,-2.4217 14.014,-6.8822 21.412,-8.7449 9.7858,-2.4638 19.948,-3.8163 30.03,-4.5913 7.2932,-0.5607 14.937,-0.383 22.036,1.2043 12.021,2.6878 23.648,6.7757 34.516,13.023 10.931,6.283 20.362,14.408 28.702,23.486 6.1747,6.7213 10.843,15.043 15.179,23.186 6.4392,12.091 9.9983,25.31 11.051,38.937 0.84949,10.998 1.0975,22.158 -2.3167,32.916 -1.5242,4.8024 -3.9905,9.3514 -5.1003,14.227 -1.0903,4.7904 -0.98761,9.8503 -1.4421,14.789 -0.1488,1.6169 -0.40277,3.2242 -0.91071,5.0168 -0.45825,-5.5214 -0.63073,-11.223 -0.76733,-16.926 -0.3999,-16.692 -4.3035,-32.61 -10.912,-47.857 -8.7229,-20.124 -21.59,-37.356 -38.339,-51.387 -8.2393,-6.9022 -17.393,-12.845 -26.649,-18.356 -6.5961,-3.9276 -13.951,-6.6738 -21.158,-9.4508 -5.1796,-1.9957 -10.588,-3.7617 -16.051,-4.568 -7.1939,-1.0618 -14.537,-1.1698 -21.824,-1.5236 -6.2491,-0.3034 -12.509,-0.47781 -18.765,-0.48922 -1.924,-0.004 -3.8586,0.67764 -5.7712,1.119 -1.7542,0.40479 -3.4732,0.96262 -5.2288,1.3594 -5.4299,1.2273 -10.893,2.3133 -16.299,3.6393 -4.6594,1.1431 -9.2819,2.4579 -13.868,3.8668 -1.7354,0.53312 -3.3245,1.5426 -5.2194,2.0074 z"
         fill="#f16c25"
         id="path30" /><path
         d="m 633.84,281.7 c 0.23645,0.12216 0.47284,0.24429 1.0868,0.89923 3.7302,2.8416 7.0828,5.1505 9.9984,7.3155 -10.592,-2.4725 -20.649,-5.4639 -30.923,-6.9839 -18.196,-2.6918 -36.312,-1.7124 -54.32,3.8282 -1.7758,0.21063 -3.2333,0.51373 -4.6527,0.94333 -34.243,10.363 -60.651,31.05 -80.359,61.238 -2.7086,3.9748 -5.1902,7.5676 -7.8843,11.246 -0.65375,0.90296 -1.0949,1.7203 -1.6645,2.9208 -0.74615,1.5778 -1.3639,2.7723 -2.2465,4.0353 -1.1547,1.7247 -2.0445,3.381 -3.1708,5.5276 -0.42791,0.79876 -0.61923,1.1072 -0.99316,1.4909 -0.39511,0.69242 -0.60757,1.3095 -1.0736,2.4346 -0.45489,0.82828 -0.65625,1.1487 -1.0714,1.5652 -0.58676,0.92471 -0.95981,1.7533 -1.4115,2.9649 -2.1472,4.974 -4.2159,9.5648 -6.548,14.279 -1.0267,1.3031 -1.79,2.4828 -2.5742,3.3576 -0.112,-0.84372 -0.20309,-1.3826 -0.29422,-1.9215 -0.21323,0.0722 -0.42645,0.14441 -0.63968,0.21661 0.31629,0.6777 0.6326,1.3554 0.97937,2.3617 0.11344,0.75225 0.19641,1.1759 0.21527,1.7604 -0.18634,0.3562 -0.31848,0.54468 -0.74255,0.96253 -0.67627,0.85763 -1.0705,1.4789 -1.4915,1.7688 -0.1351,-0.95432 -0.2434,-1.5772 -0.35171,-2.2001 -0.33087,-0.25577 -0.66178,-0.5115 -0.99265,-0.76727 -0.7373,1.4744 -1.4746,2.9489 -2.0901,4.1798 -1.4695,-0.63751 -2.1494,-0.79236 -2.6589,-1.1744 -8.8772,-6.6548 -17.865,-13.172 -26.549,-20.072 -5.9212,-4.7047 -12.086,-9.3746 -16.961,-15.071 -12.229,-14.292 -23.965,-28.974 -32.399,-46.067 -1.9321,-3.9154 -3.0526,-6.8585 -0.83472,-10.831 4.339,-3.385 8.3612,-6.634 12.383,-9.883 0,0 0.19767,-0.23896 0.66263,-0.25403 5.9962,-3.3141 11.407,-6.839 17.081,-9.8698 17.317,-9.249 35.059,-17.352 54.094,-22.737 15.901,-4.4988 31.79,-8.4048 48.311,-9.5058 3.787,-0.25238 7.5306,-1.1786 11.318,-1.405 9.5669,-0.57214 19.246,-1.9882 28.698,-1.1099 13.894,1.2909 27.772,3.659 41.395,6.7274 13.564,3.0551 26.837,7.4373 40.175,11.445 6.2424,1.8758 12.338,4.2404 18.5,6.3834 z"
         fill="#18b05b"
         id="path31" /><path
         d="m 360.91,312.04 c -1.9011,3.8362 -0.78052,6.7793 1.1516,10.695 8.4346,17.093 20.17,31.775 32.399,46.067 4.8744,5.6966 11.039,10.366 16.961,15.071 8.6837,6.8997 17.672,13.417 26.549,20.072 0.50958,0.38202 1.1894,0.53687 2.6589,1.1744 0.61547,-1.2309 1.3528,-2.7053 2.0901,-4.1798 0.33087,0.25577 0.66178,0.5115 0.99265,0.76727 0.10831,0.62287 0.21661,1.2458 0.35806,2.4979 0.12464,1.0108 0.21616,1.3922 0.21106,2.1445 -0.56424,1.558 -1.0319,2.7452 -1.7703,4.102 -1.2082,3.3177 -2.1456,6.4658 -3.1436,9.9848 -0.20654,0.84909 -0.35254,1.3272 -0.76318,1.983 -0.8132,2.5653 -1.3618,4.9531 -1.9326,7.7443 -0.19339,0.9103 -0.36447,1.417 -0.802,2.0154 -0.74185,1.3656 -1.2172,2.6396 -2.0774,3.8886 -2.5162,0.90194 -4.8178,2.8461 -6.7403,2.5245 -3.1097,-0.52014 -6.1547,-2.2379 -8.8973,-3.9715 -5.4494,-3.4447 -10.892,-6.9686 -15.942,-10.96 -8.2233,-6.4997 -16.194,-13.326 -24.151,-20.154 -7.7817,-6.6775 -14.838,-13.977 -20.326,-22.791 -3.1239,-5.0174 -7.28,-9.3807 -10.765,-14.188 -3.166,-4.3676 -6.0793,-8.9201 -9.0486,-13.428 -1.0803,-1.6399 -2.1174,-3.3292 -2.9646,-5.0964 -1.0894,-2.2724 -1.9679,-4.646 -2.9422,-7.2176 -0.005,-0.24161 0.002,-0.72489 0.22015,-0.83316 0.50299,-0.31107 0.6554,-0.5868 0.83539,-1.2568 1.49,-1.8785 2.8306,-3.4271 4.1485,-4.9947 2.6394,-3.1396 5.2664,-6.2896 7.8985,-9.4353 0,0 -0.0225,-0.16034 0.33722,-0.21204 0.75576,-0.41885 1.1518,-0.78598 1.5478,-1.1531 0,0 -0.004,0.0955 0.22445,-10e-4 0.75748,-0.64737 1.2868,-1.1979 1.8162,-1.7484 0,-3e-5 -0.11188,-0.19058 0.29135,-0.30805 3.4906,-2.8119 6.578,-5.5062 9.6654,-8.2006 0.15848,-0.16959 0.31693,-0.3392 0.97034,-0.59842 0.4949,-0.0897 0.93979,-0.003 0.93979,-0.003 z"
         fill="#179b51"
         id="path32" /><path
         d="m 337.03,507.95 c -1.4174,-1.574 -2.8347,-3.148 -4.519,-4.8955 -1.14,-1.7042 -2.0131,-3.2349 -3.2238,-5.2458 -0.88409,-0.99264 -1.4305,-1.505 -1.977,-2.0174 -5.0954,-10.76 -10.206,-21.513 -15.264,-32.291 -0.54557,-1.1625 -0.7836,-2.4693 -1.1669,-4.462 -0.0243,-1.5008 -0.0459,-2.2488 0.32815,-3.0085 1.8237,0.59202 3.5712,0.85743 4.6274,1.8548 6.4335,6.0752 12.374,12.712 19.106,18.423 15.528,13.172 31.735,25.224 49.805,35.091 11.33,6.1874 22.823,11.864 34.451,17.364 4.3868,2.0753 5.5892,1.2888 5.81,-3.4534 0.22146,-4.7579 0.54034,-9.5112 0.87734,-13.825 1.5766,11.748 2.3313,23.233 4.9083,34.293 1.4269,6.1238 5.903,11.537 9.0047,17.271 0,0 0.31314,0.33283 0.38513,0.86499 5.1185,5.4147 10.165,10.297 15.211,15.18 -9.3032,-2.9875 -18.799,-5.49 -27.858,-9.0923 -10.008,-3.9798 -19.668,-8.8576 -29.37,-13.57 -3.8496,-1.8699 -7.4041,-4.3474 -11.414,-6.6345 -4.0374,-2.821 -7.605,-5.7906 -11.496,-8.2482 -13.542,-8.5537 -24.968,-19.486 -36.041,-31.688 -0.94455,-0.95285 -1.5646,-1.4314 -2.1847,-1.9099 z"
         fill="#025929"
         id="path33" /><path
         d="m 431.16,453.9 c -0.0253,0.50577 -0.0506,1.0115 -0.41052,2.049 -0.7482,1.7023 -1.1618,2.8728 -1.8885,3.9616 -1.1614,1.5677 -2.0848,3.1836 -2.8389,4.8751 -0.9433,2.1162 -1.7473,4.2945 -2.7588,6.8127 -2.7498,-1.783 -4.6487,-3.0576 -6.5892,-4.2657 -13.032,-8.1126 -26.363,-15.789 -38.996,-24.479 -7.1246,-4.9006 -13.273,-11.29 -19.55,-17.332 -5.1169,-4.9255 -9.6813,-10.419 -14.651,-15.504 -8.9512,-9.1581 -17.002,-18.96 -23.184,-30.253 -1.5039,-2.7473 -2.8561,-6.2374 -7.1545,-5.7619 4.0798,-8.2914 8.151,-16.587 12.246,-24.871 0.87066,-1.7612 1.8292,-3.4789 2.7688,-5.5692 0.0215,-0.35257 -0.006,-0.43659 0.20136,-0.5415 0.37625,-0.38383 0.54498,-0.66276 0.71371,-0.94169 0,0 -0.0438,-0.009 0.28513,0.003 0.80762,-0.32956 1.2863,-0.67135 1.765,-1.0131 0,0 0.45026,-0.007 0.67496,-0.0236 1.1941,2.3138 2.0725,4.6873 3.162,6.9597 0.84723,1.7672 1.8843,3.4565 2.9646,5.0964 2.9693,4.5075 5.8825,9.0601 9.0486,13.428 3.4849,4.8075 7.641,9.1707 10.765,14.188 5.488,8.8144 12.544,16.113 20.326,22.791 7.9572,6.828 15.927,13.654 24.151,20.154 5.05,3.9916 10.493,7.5155 15.942,10.96 2.7426,1.7336 5.7875,3.4513 8.8973,3.9715 1.9226,0.3216 4.2242,-1.6225 6.7123,-2.3137 0.35669,0.23578 0.24512,0.64783 -0.0263,0.8009 -0.41522,1.1086 -0.55902,2.0641 -0.73403,3.4146 -0.63471,4.7312 -1.2382,9.0674 -1.8416,13.404 z"
         fill="#108946"
         id="path34" /><path
         d="m 313.06,374.36 c 4.3746,-0.83831 5.7267,2.6518 7.2307,5.3991 6.1819,11.293 14.233,21.095 23.184,30.253 4.97,5.0849 9.5344,10.579 14.651,15.504 6.2769,6.042 12.425,12.432 19.55,17.332 12.634,8.6901 25.965,16.366 38.996,24.479 1.9405,1.208 3.8394,2.4826 6.5892,4.2657 1.0114,-2.5182 1.8155,-4.6965 2.7588,-6.8127 0.75403,-1.6915 1.6775,-3.3074 2.9609,-4.5749 -0.27667,4.0732 -1.1732,7.7428 -1.6065,11.466 -0.16638,1.4298 0.72306,2.9825 1.1314,4.4792 0,0 -0.21646,0.10294 -0.64303,0.002 -1.0694,0.18289 -1.7122,0.46716 -2.355,0.75146 0.56835,0.3956 1.1367,0.79123 1.5513,1.5449 -0.42346,2.6934 -0.69317,5.0287 -0.97201,7.7794 0.007,0.6919 0.0237,0.96839 0.11301,1.3618 0.0729,0.11688 0.0659,0.39227 -0.2659,0.60595 -1.1138,4.2162 -1.8957,8.2187 -2.8644,13.178 -2.756,-0.66339 -5.7358,-0.8753 -8.2527,-2.0658 -21.659,-10.244 -41.748,-23.179 -60.082,-38.44 -16.44,-13.685 -31.837,-28.665 -44.595,-46.071 -0.93479,-1.2753 -2.7788,-1.8842 -4.2059,-3.2427 0.26981,-4.1521 0.54539,-7.8643 0.82096,-11.577 0.0439,-0.45257 0.0879,-0.90512 0.40933,-1.9163 0.69113,-2.7346 1.1048,-4.9105 1.5185,-7.0865 0.0895,-0.75083 0.17896,-1.5016 0.53595,-2.8144 0.41739,-2.086 0.56729,-3.61 0.71717,-5.1341 1.0156,-2.768 2.0313,-5.536 3.1232,-8.6668 z"
         fill="#0b783c"
         id="path35" /><path
         d="m 305.94,412 c 1.4213,0.9187 3.2654,1.5276 4.2001,2.8029 12.758,17.405 28.155,32.386 44.595,46.071 18.333,15.261 38.423,28.196 60.082,38.44 2.5169,1.1905 5.4967,1.4024 8.2527,2.0658 0.96875,-4.9588 1.7507,-8.9613 2.8774,-12.741 0.18908,7.6183 0.0334,15.014 -0.1222,22.41 -0.27618,4.7553 -0.59506,9.5086 -0.81652,14.266 -0.22077,4.7422 -1.4232,5.5288 -5.81,3.4534 -11.628,-5.5009 -23.12,-11.177 -34.451,-17.364 -18.069,-9.8674 -34.277,-21.919 -49.805,-35.091 -6.732,-5.7108 -12.673,-12.348 -19.106,-18.423 -1.0562,-0.9974 -2.8037,-1.2628 -4.8484,-2.0248 -1.0913,-0.72021 -1.566,-1.2822 -2.0406,-1.8443 -1.0202,-5.7128 -2.0404,-11.426 -3.0406,-18.013 -0.33799,-3.8978 -0.69605,-6.921 -1.0541,-9.9443 0.0327,-3.7294 0.0654,-7.4588 0.32281,-11.799 0.4047,-1.1616 0.58469,-1.7125 0.76468,-2.2634 z"
         fill="#056832"
         id="path36" /></g></g></svg>
